<svg xmlns="http://www.w3.org/2000/svg" width="344.177" height="327.568" viewBox="42.911 183.432 344.177 327.568"><g data-name="onboarding_art"><g data-name="freepik--Floor--inject-28"><path d="M336.282 340.836c-67.424-38.925-176.377-38.925-243.362 0-66.985 38.924-66.633 102.046.791 140.97 67.424 38.925 176.378 38.925 243.37 0 66.992-38.924 66.625-102.038-.799-140.97Z" fill="#f5f5f5" fill-rule="evenodd" data-name="Path 1"/></g><g data-name="freepik--Shadows--inject-28"><path d="M317.77 433.464c-20.19-11.656-52.811-11.656-72.864 0-20.052 11.655-19.951 30.556.23 42.212 20.182 11.656 52.819 11.656 72.871 0 20.052-11.656 19.952-30.535-.237-42.212Z" fill="#e0e0e0" fill-rule="evenodd" data-name="Path 2"/><path d="M192.901 374.465c-26.218-15.11-68.597-15.11-94.65 0-26.053 15.11-25.901 39.687.303 54.825 26.204 15.139 68.604 15.11 94.656 0 26.053-15.109 25.917-39.673-.309-54.825Z" fill="#e0e0e0" fill-rule="evenodd" data-name="Path 3"/><path d="M358.011 403.568c-4.813-2.777-12.584-2.777-17.361 0-4.778 2.778-4.75 7.275.057 10.073 4.806 2.8 12.584 2.778 17.362 0 4.777-2.777 4.748-7.295-.058-10.073Z" fill="#e0e0e0" fill-rule="evenodd" data-name="Path 4"/><path d="m212.658 347.232 94.614 54.343 36.932-21.26-94.664-54.373-36.882 21.29Z" fill="#e0e0e0" fill-rule="evenodd" data-name="Path 5"/></g><g data-name="freepik--Pictures--inject-28"><path d="m105.806 240.034.05 17.549 2.123 1.23-.058-20.002-2.115 1.223Z" fill="#f0f0f0" fill-rule="evenodd" data-name="Path 7"/><path d="m82.897 270.836.008 2.46 25.074-14.483-2.123-1.23-22.959 13.253Z" fill="#f5f5f5" fill-rule="evenodd" data-name="Path 8"/><path d="m110.483 234.379-30.219 17.44.072 25.902 30.219-17.447-.072-25.895Zm-27.578 38.918v-2.44l-.05-17.548 22.958-13.253 2.116-1.223.057 20.002-25.081 14.462Z" fill="#e0e0e0" fill-rule="evenodd" data-name="Path 9"/><path d="m110.483 234.379-2.123-1.238-30.218 17.448 2.122 1.23 30.219-17.44Z" fill="#f5f5f5" fill-rule="evenodd" data-name="Path 10"/><path d="m78.142 250.59.071 25.908 2.13 1.23-.079-25.908-2.122-1.23Z" fill="#f0f0f0" fill-rule="evenodd" data-name="Path 11"/><path d="m143.162 250.035.05 17.542 2.123 1.237-.057-20.002-2.116 1.223Z" fill="#f0f0f0" fill-rule="evenodd" data-name="Path 13"/><path d="m120.254 280.837.007 2.46 25.074-14.483-2.122-1.237-22.96 13.26Z" fill="#f5f5f5" fill-rule="evenodd" data-name="Path 14"/><path d="m147.84 244.38-30.22 17.44.08 25.902 30.218-17.44-.079-25.902Zm-27.58 38.918v-2.461l-.05-17.549 22.96-13.253 2.115-1.223.057 20.002-25.081 14.484Z" fill="#e0e0e0" fill-rule="evenodd" data-name="Path 15"/><path d="m147.84 244.38-2.123-1.238-30.22 17.448 2.13 1.23 30.212-17.44Z" fill="#f5f5f5" fill-rule="evenodd" data-name="Path 16"/><path d="m115.498 260.59.072 25.91 2.13 1.23-.073-25.91-2.13-1.23Z" fill="#f0f0f0" fill-rule="evenodd" data-name="Path 17"/><path d="M188.13 249.23v-4.274l-.2.107-.353.21c-3.152 1.899-6.303 4.892-9.246 8.115-.48.542-.959 1.082-1.439 1.619-2.482 2.878-4.907 5.85-7.403 8.634v6.885l3.007-1.734a65.97 65.97 0 0 1 15.635-19.563Z" fill="#ebebeb" fill-rule="evenodd" data-name="Path 26"/><path d="M188.16 259.792V254.1a36.14 36.14 0 0 0-6.39 9.354l6.39-3.662Z" fill="#ebebeb" fill-rule="evenodd" data-name="Path 27"/><path d="M181.756 263.49a36.14 36.14 0 0 1 6.39-9.354v-4.87a65.97 65.97 0 0 0-15.628 19.606l9.253-5.346Z" fill="#fafafa" fill-rule="evenodd" data-name="Path 28"/><path d="M178.353 242.2" fill="transparent" data-name="Path 29"/><path d="M178.648 242.078" fill="transparent" data-name="Path 30"/><path d="m175.475 243.358.439-.15a28.69 28.69 0 0 0 2.439-1.008l.295-.144c.273-.13.554-.259.827-.403.475-.245.95-.496 1.44-.763-.476.267-.95.518-1.44.763l.173-.086c.417-.216.835-.44 1.252-.677l.273-.15.216-.13a44.888 44.888 0 0 0 6.425-4.605l.28-.237v-7.195c-4.568 2.338-9.065 3.065-12.691 1.935a11.138 11.138 0 0 1-6.015-4.655l.058 18.707a21.98 21.98 0 0 0 6.029-1.202Z" fill="#fafafa" fill-rule="evenodd" data-name="Path 31"/><path d="M178.303 253.402c2.942-3.223 6.094-6.216 9.245-8.115l.353-.21.201-.107v-4.13a89.384 89.384 0 0 0-16.829 12.814c-.612.583-1.216 1.173-1.827 1.741v8.29c2.496-2.814 4.92-5.822 7.403-8.635.49-.556.974-1.106 1.454-1.648Z" fill="#fafafa" fill-rule="evenodd" data-name="Path 32"/><path d="M188.11 240.84v-5.036l-.281.237a44.89 44.89 0 0 1-6.425 4.605l-.216.13-.274.15c-.417.238-.834.46-1.252.677l-.172.086-.115.065.115-.065-.82.403-.31.144c-.813.381-1.626.72-2.432 1.007l.46-.172-.46.172-.439.151a21.981 21.981 0 0 1-6.05 1.195v10.842c.61-.568 1.215-1.158 1.827-1.74a89.381 89.381 0 0 1 16.843-12.851Z" fill="#ebebeb" fill-rule="evenodd" data-name="Path 33"/><path d="M188.059 222.738v-5.318c-2.878-.676-5.13-2.784-6.31-5.928l-6.375 3.684a13.167 13.167 0 0 0 12.685 7.562Z" fill="#fafafa" fill-rule="evenodd" data-name="Path 34"/><path d="M175.381 230.5c3.598 1.13 8.124.404 12.692-1.935v-5.827a13.167 13.167 0 0 1-12.699-7.562l-6.008 3.468v7.195a11.138 11.138 0 0 0 6.015 4.662Z" fill="#ebebeb" fill-rule="evenodd" data-name="Path 35"/><path d="m189.095 206.06-20.8 11.986.15 54.337 20.772-11.987-.122-54.336Zm-19.57 64.51V244.553l-.058-18.707v-7.195l6.008-3.468 6.375-3.684 6.28-3.597V259.777l-6.403 3.698-9.252 5.346-2.95 1.749Z" fill="#fff" fill-rule="evenodd" data-name="Path 36"/><path d="M179.346 241.725" fill="transparent" data-name="Path 37"/><path d="m179.36 241.718.115-.065" fill="transparent" data-name="Path 38"/><path d="M180.9 240.89c-.475.267-.95.518-1.44.763" fill="transparent" data-name="Path 39"/><path d="M179.475 241.653" fill="transparent" data-name="Line 1"/><path d="m175.914 243.207.46-.172" fill="transparent" data-name="Path 40"/><path d="M188.044 217.42v-9.547l-6.28 3.597c1.15 3.166 3.395 5.274 6.28 5.95Z" fill="#ebebeb" fill-rule="evenodd" data-name="Path 41"/><path d="m189.217 260.396-20.772 11.994.008 1.439 22.009-12.706-1.245-.727Z" fill="#cacaca" fill-rule="evenodd" data-name="Path 42"/><path d="m189.066 206.06.151 54.336 1.245.727-.158-55.783-1.238.72Z" fill="#f0f0f0" fill-rule="evenodd" data-name="Path 43"/><path d="m193.65 199.555-28.723 16.549.18 63.48 28.722-16.547-.18-63.482Zm-25.183 74.274v-1.439l-.151-54.336 20.779-11.994 1.238-.72.158 55.775-22.024 12.714Z" fill="#e0e0e0" fill-rule="evenodd" data-name="Path 44"/><path d="m193.65 199.555-2.375-1.273-28.715 16.577 2.367 1.274 28.722-16.578Z" fill="#f5f5f5" fill-rule="evenodd" data-name="Path 45"/><path d="m162.56 214.86.18 63.48 2.367 1.274-.18-63.481-2.367-1.274Z" fill="#f0f0f0" fill-rule="evenodd" data-name="Path 46"/><path d="m98.51 246.697 6.26 4.928.014 4.814-20.822 12.023-.014-4.814 3.964-7.886 3.569 2.77-1.26 3.915 1.828-3.476 6.461-12.274Z" fill="#e0e0e0" fill-rule="evenodd" data-name="Path 47"/><path d="M91.668 249.121c.979-.568 1.777-.107 1.784 1.015a3.914 3.914 0 0 1-1.77 3.065c-.978.568-1.777.108-1.784-1.014a3.914 3.914 0 0 1 1.77-3.066Z" fill="#e0e0e0" fill-rule="evenodd" data-name="Path 48"/><path d="m135.867 256.698 6.26 4.928.014 4.814-20.823 12.022-.014-4.813 3.964-7.886 3.57 2.77-1.26 3.915 1.828-3.476 6.46-12.274Z" fill="#e0e0e0" fill-rule="evenodd" data-name="Path 49"/><path d="M129.024 259.122c.979-.568 1.777-.107 1.785 1.015a3.914 3.914 0 0 1-1.77 3.065c-.979.568-1.778.115-1.785-1.015a3.914 3.914 0 0 1 1.77-3.065Z" fill="#e0e0e0" fill-rule="evenodd" data-name="Path 50"/></g><g data-name="freepik--Window--inject-28"><path d="m310.46 219.075-.202 69.77 3.885 2.245.195-69.777-3.878-2.238Z" fill="#e0e0e0" fill-rule="evenodd" data-name="Path 51"/><path d="M314.345 221.313h-.007l-.195 69.777 3.375-1.965.187-65.87-3.36-1.942Z" fill="#f0f0f0" fill-rule="evenodd" data-name="Path 52"/><path d="m310.46 219.071 3.882 2.241-3.882-2.24z" fill="#e0e0e0" fill-rule="evenodd" data-name="Rectangle 1"/><path d="m314.33 224.45.008-3.137-3.878-2.238-.008 3.13 3.878 2.245Z" fill-rule="evenodd" data-name="Path 53"/><path d="m314.33 224.45 2.727-1.569-2.712-1.568h-.007l-.008 3.137Z" fill-rule="evenodd" data-name="Path 54"/><path d="m310.46 219.071 3.882 2.241-3.882-2.24z" fill="#e0e0e0" fill-rule="evenodd" data-name="Rectangle 2"/><path d="m263.736 192.094 3.374-1.957-.202 69.77-3.374 1.964.202-69.777Z" fill="#f0f0f0" fill-rule="evenodd" data-name="Path 55"/><path d="m263.534 261.87 3.374-1.963 97.341 56.2-3.374 1.957-97.341-56.193Z" fill="#f5f5f5" fill-rule="evenodd" data-name="Path 56"/><path d="M259.865 185.396 364.96 246.07l-.223 78.698-105.096-60.682.223-78.691Zm101.01 132.668.194-69.792-97.334-56.178-.201 69.791 97.34 56.193" fill="#e0e0e0" fill-rule="evenodd" data-name="Path 57"/><path d="m259.865 185.396 3.374-1.965 105.104 60.683-3.382 1.957-105.096-60.675Z" fill="#f5f5f5" fill-rule="evenodd" data-name="Path 58"/><path d="m364.961 246.07 3.382-1.956-.23 78.691-3.375 1.964.223-78.698Z" fill="#f0f0f0" fill-rule="evenodd" data-name="Path 59"/></g><g data-name="freepik--Furniture--inject-28"><path d="M224.091 302.789v47.494l80.785 46.393v-47.494l-80.785-46.393Z" fill="#e0e0e0" fill-rule="evenodd" data-name="Path 60"/><path d="M336.743 330.842v47.494l-31.867 18.34v-47.494l31.867-18.34Z" fill="#e0e0e0" fill-rule="evenodd" data-name="Path 61"/><path d="M224.091 302.789v47.494l80.785 46.393v-47.494l-80.785-46.393Z" fill-rule="evenodd" data-name="Path 62"/><path d="M336.743 330.842v47.494l-31.867 18.34v-47.494l31.867-18.34Z" fill-rule="evenodd" data-name="Path 63"/><path d="m263.246 354.952 37.817 21.714v-11.152L263.246 343.8v11.152Z" fill="#e0e0e0" fill-rule="evenodd" data-name="Path 64"/><path d="M301.063 362.852v-11.461l-37.817-21.715v11.462l37.817 21.714Z" fill="#e0e0e0" fill-rule="evenodd" data-name="Path 65"/><path d="m259.433 327.482-31.528-18.103v11.462l31.528 18.102v-11.461Z" fill="#e0e0e0" fill-rule="evenodd" data-name="Path 66"/><path d="m263.246 368.37 37.817 21.715V379.33l-37.817-21.715v10.757Z" fill="#e0e0e0" fill-rule="evenodd" data-name="Path 67"/><path d="m259.433 341.613-31.528-18.11v11.152l31.528 18.103v-11.145Z" fill="#e0e0e0" fill-rule="evenodd" data-name="Path 68"/><path d="M227.905 337.317v10.757l31.528 18.102v-10.749l-31.528-18.11Z" fill="#e0e0e0" fill-rule="evenodd" data-name="Path 69"/><path d="m222.947 298.357 82.663 47.486 32.277-18.577-82.714-47.508-32.226 18.599Z" fill="#ebebeb" fill-rule="evenodd" data-name="Path 70"/><path d="M222.947 298.357v4.856l82.663 47.48v-4.85l-82.663-47.486Z" fill="#e0e0e0" fill-rule="evenodd" data-name="Path 71"/><path d="M337.887 327.266v4.85l-32.277 18.577v-4.85l32.277-18.577Z" fill="#e0e0e0" fill-rule="evenodd" data-name="Path 72"/><path d="M337.887 327.266v4.85l-32.277 18.577v-4.85l32.277-18.577Z" fill-rule="evenodd" data-name="Path 73"/></g><g data-name="freepik--Plant--inject-28"><path d="m361.004 387.596-11.649.338-11.64-.338c-.497 7.857 1.035 15.872 3.15 19.786a5.353 5.353 0 0 0 2.31 2.345c3.432 1.979 8.986 1.979 12.397 0a5.188 5.188 0 0 0 2.302-2.41c2.108-3.936 3.627-11.9 3.13-19.721Z" fill="#fff" fill-rule="evenodd" data-name="Path 74"/><path d="M357.565 382.825c4.561 2.634 4.583 6.9.05 9.534-4.533 2.633-11.9 2.633-16.462 0-4.561-2.634-4.583-6.9-.05-9.534 4.533-2.633 11.9-2.604 16.462 0Z" fill="#ebebeb" fill-rule="evenodd" data-name="Path 75"/><path d="M355.759 383.876c3.562 2.05 3.598 5.382.043 7.44-3.554 2.057-9.288 2.05-12.843 0-3.554-2.051-3.597-5.39-.043-7.44 3.554-2.05 9.289-2.058 12.843 0Z" fill="#e0e0e0" fill-rule="evenodd" data-name="Path 76"/><g data-name="Group 1"><path d="M355.759 383.876c3.562 2.05 3.598 5.382.043 7.44-3.554 2.057-9.289 2.05-12.843 0-3.554-2.051-3.597-5.39-.043-7.44 3.554-2.05 9.289-2.058 12.843 0Z" fill-rule="evenodd" data-name="Path 77"/></g><path d="M368.501 337.914c-26.24 8.591-26.477 26.14-20.563 38.645 1.497 2.525 6.008 3.885 9.936-11.656l-6.892.877 8.036-4.065 2.087-6.238-6.699.497 8.498-3.598a125.202 125.202 0 0 1 5.597-14.462Z" fill="#d6e4e5" fill-rule="evenodd" data-name="Path 78"/><path d="M368.501 337.914c-26.24 8.591-26.477 26.14-20.563 38.645 1.497 2.525 6.008 3.885 9.936-11.656l-6.892.877 8.036-4.065 2.087-6.238-6.699.497 8.498-3.598a125.202 125.202 0 0 1 5.597-14.462Z" fill-rule="evenodd" data-name="Path 79"/><path d="M368.501 337.914c-26.24 8.591-26.477 26.14-20.563 38.645 1.497 2.525 6.008 3.885 9.936-11.656l-6.892.877 8.036-4.065 2.087-6.238-6.699.497 8.498-3.598a125.202 125.202 0 0 1 5.597-14.462Z" fill="#fff" fill-rule="evenodd" data-name="Path 80"/><path d="M361.055 342.303c-13.83 10.505-15.11 22.542-11.174 35.112-1.36-11.073-2.857-22.261 11.174-35.112Z" fill="#fff" fill-rule="evenodd" data-name="Path 81"/><path d="M324.065 355.758c25.859 3.64 28.996 19.952 25.564 32.571-.971 2.605-4.943 4.62-11.188-9.202l6.562-.324-8.152-2.46-2.98-5.476 6.318-.654-8.512-1.914a119.441 119.441 0 0 0-7.612-12.541Z" fill="#d6e4e5" fill-rule="evenodd" data-name="Path 82"/><path d="M324.065 355.758c25.859 3.64 28.996 19.952 25.564 32.571-.971 2.605-4.943 4.62-11.188-9.202l6.562-.324-8.152-2.46-2.98-5.476 6.318-.654-8.512-1.914a119.441 119.441 0 0 0-7.612-12.541Z" fill="#fff" fill-rule="evenodd" data-name="Path 83"/><path d="M324.065 355.758c25.859 3.64 28.996 19.952 25.564 32.571-.971 2.605-4.943 4.62-11.188-9.202l6.562-.324-8.152-2.46-2.98-5.476 6.318-.654-8.512-1.914a119.441 119.441 0 0 0-7.612-12.541Z" fill-rule="evenodd" data-name="Path 84"/><path d="M331.706 358.636c14.628 7.483 17.793 18.484 16.24 30.838-.562-10.57-1.022-21.24-16.24-30.838Z" fill="#fff" fill-rule="evenodd" data-name="Path 85"/><path d="M376.07 361.852c-23.743.389-28.37 14.735-26.693 26.5.583 2.453 3.943 4.712 11.116-7.045l-5.878-1.029 7.627-1.302 3.295-4.583-5.627-1.295 7.915-.777a108.311 108.311 0 0 1 8.245-10.469Z" fill="#d6e4e5" fill-rule="evenodd" data-name="Path 86"/><path d="M368.861 363.572c-14.023 5.108-18.103 14.67-18.088 25.98 1.647-9.44 3.295-19.001 18.088-25.98Z" fill="#fff" fill-rule="evenodd" data-name="Path 87"/><path d="M376.07 361.852c-23.743.389-28.37 14.735-26.693 26.5.583 2.453 3.943 4.712 11.116-7.045l-5.878-1.029 7.627-1.302 3.295-4.583-5.627-1.295 7.915-.777a108.311 108.311 0 0 1 8.245-10.469Z" fill="#fff" fill-rule="evenodd" data-name="Path 88"/></g><g data-name="freepik--Brain--inject-28"><path d="M200.952 360.14a21.369 21.369 0 0 0-7.979-24.866c-2.439-1.684-5.23-2.878-7.425-4.85-2.05-1.87-3.468-4.316-5.555-6.18-3.187-2.792-7.67-3.763-11.886-3.396-4.216.367-8.497 2.698-12.317 4.526a17.915 17.915 0 0 0-15.83-2.519c-2.877.95-5.496 2.634-8.382 3.598-2.885.964-5.964 1.223-8.986 1.662-3.022.439-6.094 1.122-8.634 2.878-2.54 1.755-5.605 5.547-5.245 8.576-5.936-.72-11.915 2.562-15.419 7.411-3.504 4.85-4.763 11.037-4.633 17.016-4.792 2.245-8.066 7.267-9.181 12.433a17.512 17.512 0 0 0 3.72 14.836c-2.159 2.511-2.159 6.756-1.152 9.944a13.75 13.75 0 0 0 6.224 7.533 22.125 22.125 0 0 0 9.512 2.791c8.367.72 18.045 2.317 26.305.842 31.434-5.648 66.028-22.204 76.863-52.235Z" fill="#d6e4e5" fill-rule="evenodd" data-name="Path 89"/><path d="M200.952 360.14a21.369 21.369 0 0 0-7.979-24.866c-2.439-1.684-5.23-2.878-7.425-4.85-2.05-1.87-3.468-4.316-5.555-6.18-3.187-2.792-7.67-3.763-11.886-3.396-4.216.367-8.497 2.698-12.317 4.526a17.915 17.915 0 0 0-15.83-2.519c-2.877.95-5.496 2.634-8.382 3.598-2.885.964-5.964 1.223-8.986 1.662-3.022.439-6.094 1.122-8.634 2.878-2.54 1.755-5.605 5.547-5.245 8.576-5.936-.72-11.915 2.562-15.419 7.411-3.504 4.85-4.763 11.037-4.633 17.016-4.792 2.245-8.066 7.267-9.181 12.433a17.512 17.512 0 0 0 3.72 14.836c-2.159 2.511-2.159 6.756-1.152 9.944a13.75 13.75 0 0 0 6.224 7.533 22.125 22.125 0 0 0 9.512 2.791c8.367.72 18.045 2.317 26.305.842 31.434-5.648 66.028-22.204 76.863-52.235Z" fill-rule="evenodd" data-name="Path 90"/><g data-name="Group 2"><path d="M110.95 343.9a11.39 11.39 0 0 1 13.167-4.748 7.85 7.85 0 0 0-8.18-2.158c-2.864.942-4.735 3.9-4.986 6.907Z" fill-rule="evenodd" data-name="Path 91"/><path d="M85.804 396.51c.555-.928.974-1.931 1.245-2.978.18-1.065-.28-2.655-1.252-3.116 1.558.101 3.007.837 4.008 2.036a10.828 10.828 0 0 0-5.44-5.252 10.642 10.642 0 0 0-4.087-.863 17.08 17.08 0 0 0 2.922 4.942c-2.159 2.512-2.159 6.757-1.152 9.944a12.347 12.347 0 0 0 2.461 4.382 15.167 15.167 0 0 1 1.295-9.095Z" fill-rule="evenodd" data-name="Path 92"/><path d="M145.58 332.44c.288-2.879 5.446-6.872 10.21-7.066-.339-.252-.72-.482-1.051-.72-5.82-1.345-9.735 1.677-9.16 7.785Z" fill-rule="evenodd" data-name="Path 93"/><path d="M94.841 363.975a8.39 8.39 0 0 0 3.108 6.302c-2.878-6.209-1.396-14.39 3.195-19.505a12.447 12.447 0 0 0-6.915 10.325 12.591 12.591 0 0 0-5.518.518c0 .791-.043 1.575 0 2.36 2.626-.878 6.13 0 6.13 0Z" fill-rule="evenodd" data-name="Path 94"/><path d="M201.204 346.347a21.585 21.585 0 0 0-8.23-11.073c-2.44-1.684-5.232-2.878-7.426-4.85-.509-.472-.99-.974-1.44-1.503-2.77-.446-5.582-1.144-8.381-1.195a19.88 19.88 0 0 0-8.217 1.41 12.009 12.009 0 0 0-6.08 5.548 4.389 4.389 0 0 0-4.979 1.878 33.428 33.428 0 0 0-22.7 12.073 11.642 11.642 0 0 1 .05-6.145c-1.956 1.533-2.827 4.375-3.388 6.8-.561 2.424-1.022 4.979-2.576 6.921-5.583.238-11.512 2.346-15.527 6.202a23.57 23.57 0 0 0-7.123 14.779c-.165 1.92-.108 3.9-.72 5.756-.61 1.856-2.114 3.54-4.043 3.648a4.317 4.317 0 0 1-2.158-2.555 3.655 3.655 0 0 1 .439-3.036c-1.375.612-1.785 2.353-1.77 3.857.014 1.503.28 3.08-.36 4.439a9.57 9.57 0 0 1-2.346 2.626 14.606 14.606 0 0 0-4.353 8.18c-.51 3.109-.079 7.678 3.022 10.577 1.593.437 3.224.721 4.871.85 8.368.719 18.045 2.316 26.305.841 31.428-5.626 66.021-22.182 76.857-52.214a21.585 21.585 0 0 0 .273-13.814Z" fill-rule="evenodd" data-name="Path 95"/><path d="M108.871 348.477a11.13 11.13 0 0 1 1.749 4.784 10.433 10.433 0 0 1 8.101 1.634 5.64 5.64 0 0 0-2.878-2.986 5.418 5.418 0 0 0-4.08-.159c-.107-1.51-1.482-2.734-2.892-3.273Z" fill-rule="evenodd" data-name="Path 96"/><path d="M135.572 338.929a7.051 7.051 0 0 0-3.101-8.022 4.648 4.648 0 0 1 3.597 1.136 4.367 4.367 0 0 1 1.44 3.375 5.202 5.202 0 0 1-1.936 3.511Z" fill-rule="evenodd" data-name="Path 97"/></g><path d="M200.305 395.006a37.003 37.003 0 0 1-10.073 16.837 36.622 36.622 0 0 1-8.095 5.892c-2.597 1.389-5.432 3.18-8.454 2.986-1.863-.122-3.77-.554-5.583-.065-1.813.49-3.418 1.972-5.116 3.022a13.404 13.404 0 0 1-13.454.115c-1.914-1.093-1.979-.604-3.799.511a17.455 17.455 0 0 1-9.087 2.569 17.878 17.878 0 0 1-4.62-.59c-.776-.202-3.597-1.842-4.187-1.67-6.85 2.015-14.39 2.202-21.03-.337-6.642-2.54-12.34-8.03-14.297-14.887-1.957-6.857.259-14.944 5.964-19.225 2.555-1.92 5.872-3.273 7.095-6.223.611-1.49.575-3.152.72-4.756.948-12.586 11.804-22.092 24.404-21.37 2.828-6.029 7.13-11.511 12.743-15.109 5.612-3.597 13.296-5.346 19.959-5.374a6.281 6.281 0 0 1 1.971-4.238 12.735 12.735 0 0 1 4.022-2.533 26.765 26.765 0 0 1 19.426-.432 26.11 26.11 0 0 1 8.534 5.195c4.417-.072 9.072 2.67 11.929 6.037a15.239 15.239 0 0 1 3.345 12.382c7.411 5.375 4.9 40.486-12.317 41.263Z" fill="#d6e4e5" fill-rule="evenodd" data-name="Path 98"/><path d="M200.305 395.006a37.003 37.003 0 0 1-10.073 16.837 36.622 36.622 0 0 1-8.095 5.892c-2.597 1.389-5.432 3.18-8.454 2.986-1.863-.122-3.77-.554-5.583-.065-1.813.49-3.418 1.972-5.116 3.022a13.404 13.404 0 0 1-13.454.115c-1.914-1.093-1.979-.604-3.799.511a17.455 17.455 0 0 1-9.087 2.569 17.878 17.878 0 0 1-4.62-.59c-.776-.202-3.597-1.842-4.187-1.67-6.85 2.015-14.39 2.202-21.03-.337-6.642-2.54-12.34-8.03-14.297-14.887-1.957-6.857.259-14.944 5.964-19.225 2.555-1.92 5.872-3.273 7.095-6.223.611-1.49.575-3.152.72-4.756.948-12.586 11.804-22.092 24.404-21.37 2.828-6.029 7.13-11.511 12.743-15.109 5.612-3.597 13.296-5.346 19.959-5.374a6.281 6.281 0 0 1 1.971-4.238 12.735 12.735 0 0 1 4.022-2.533 26.765 26.765 0 0 1 19.426-.432 26.11 26.11 0 0 1 8.534 5.195c4.417-.072 9.072 2.67 11.929 6.037a15.239 15.239 0 0 1 3.345 12.382c7.411 5.375 4.9 40.486-12.317 41.263Z" fill-rule="evenodd" data-name="Path 99"/><g data-name="Group 3"><path d="M187.476 355.218a7.914 7.914 0 0 1-.842-7.914c.597-1.302 1.554-2.432 2.058-3.777.976-2.911-.3-6.1-3.015-7.534a6.05 6.05 0 0 1 4.95 7.915c-.597 1.92-2.057 3.432-3.036 5.187-.978 1.756-1.54 4.699-.115 6.123Z" fill-rule="evenodd" data-name="Path 100"/><path d="M160.315 388.812a13.181 13.181 0 0 1 10.073-7.965 14.922 14.922 0 0 0-6.382 1.554c-.03-2.01-.97-3.9-2.554-5.137a15.109 15.109 0 0 0-6.145-2.475 5.936 5.936 0 0 1-2.878-1.137 2.792 2.792 0 0 1-.834-2.475 3.598 3.598 0 0 1 1.655-2.468 9.755 9.755 0 0 0-2.497 1.734 3.346 3.346 0 0 0-1.022 2.763c.17.832.659 1.565 1.36 2.043.695.47 1.46.827 2.267 1.058 2.093.72 4.266 1.165 6.245 2.158a8.382 8.382 0 0 1 4.202 4.08 15.181 15.181 0 0 0-5.843 5.238 20.039 20.039 0 0 0-6.806-.72c-4.655.18-9.353 1.281-13.253 3.878a16.548 16.548 0 0 0-7.022 10.685c-2.159-2.065-5.353-2.123-8.34-1.533 5.956.142 10.67 5.082 10.534 11.037a9.75 9.75 0 0 0-1.863-9.166 24.88 24.88 0 0 1 26.398-12.095c2.756.54 5.648 1.749 6.921 4.238a8.95 8.95 0 0 0-4.216-5.295Z" fill-rule="evenodd" data-name="Path 101"/><path d="M121.016 386.049a20.556 20.556 0 0 1 15.65-16.232c-9.343-.234-17.111 7.141-17.362 16.484-1.224.25-2.4.694-3.482 1.316a12.13 12.13 0 0 0-5.756 11.634 17.764 17.764 0 0 1 19.591-11.073 13.44 13.44 0 0 0-8.64-2.13Z" fill-rule="evenodd" data-name="Path 102"/><path d="M207.334 359.168a12.419 12.419 0 0 0-8.368-5.878 12.95 12.95 0 0 0-1.77-3.194 15.577 15.577 0 0 1-5.907 18.49 12.793 12.793 0 0 0 8.016-7.85c.522-1.703.616-3.51.273-5.259a12.584 12.584 0 0 1 7.756 3.691Z" fill-rule="evenodd" data-name="Path 103"/><path d="M194.85 371.587c-.769 1.201-.553 2.763-.258 4.159.295 1.395.626 2.878 0 4.201-.64 1.44-2.159 2.159-3.598 2.763a4.699 4.699 0 0 0 3.49-.669 3.878 3.878 0 0 0 1.597-2.799c.115-1.28-.417-2.518-.856-3.727-.439-1.208-.799-2.683-.374-3.928Z" fill-rule="evenodd" data-name="Path 104"/><path d="M170.669 349.369c-.195 1.072-3.116 4.59-8.598 5.526a11.16 11.16 0 0 0 10.31-5.073s-3.05 15.915 5.986 20.513c-5.597-6.476-5.986-20.513-1.784-29.298 0 0-4.202 2.547-4.454 6.878-3.31-.77-8.914-5.986-8.756-10.555h-.799c-.82 2.972.008 9.347 8.095 12.009Z" fill-rule="evenodd" data-name="Path 105"/><path d="M150.66 362.521c-3.835-9.547-12.62-9.116-19.355-5.986-.216.424-.432.849-.633 1.28 11.944-2.453 18.189 2.418 19.988 4.706Z" fill-rule="evenodd" data-name="Path 106"/><path d="M124.34 421.426c-2.504-2.971-2.46-7.605-.208-10.792-2.986.878-5.353 3.842-5.231 6.95a34.536 34.536 0 0 1-24.52-3.835 22.708 22.708 0 0 0 4.057 5.217l.583.18a41.946 41.946 0 0 0 20.146.849 8.994 8.994 0 0 0 3.598 3.15 18.044 18.044 0 0 1 3.036 2.008c.623-.148 1.25-.314 1.878-.496-1.072-1.13-2.36-2.043-3.339-3.23Z" fill-rule="evenodd" data-name="Path 107"/><path d="M153.681 417.368a14.771 14.771 0 0 1 5.094-5.187c1.303-.85 2.691-1.569 3.936-2.504a9.85 9.85 0 0 0 2.921-4.238 16.052 16.052 0 0 0 16.635-17.793 19.089 19.089 0 0 1-6.037 11.512c-3.273 2.971-8.101 4.46-12.512 4.62a9.75 9.75 0 0 1-8.677 6.547c-3.029.115-5.979-1.044-9.008-1.008 2.598 1.036 5.922 2.684 6.231 5.468.288 2.583-2.007 6.303-6.533 9.54 1.82-1.114 1.885-1.603 3.799-.51a13.273 13.273 0 0 0 4.03 1.49 6.028 6.028 0 0 1-.433-.828 8.353 8.353 0 0 1 .554-7.109Z" fill-rule="evenodd" data-name="Path 108"/><path d="M201.873 392.121a15.217 15.217 0 0 0 7.67-8.59 15.894 15.894 0 0 0-.72-11.75 7.821 7.821 0 0 0-1.23-6.05c.592 3.76-.67 7.573-3.389 10.238a7.195 7.195 0 0 0 3.368-3.23c.597 3.805.626 8.057-.763 11.662-1.389 3.605-4.245 6.749-7.914 7.915.424.043 1.309 0 1.733.036.101.907-.007 1.825-.316 2.683a12.826 12.826 0 0 0 1.504-.158 7.396 7.396 0 0 0 .057-2.756Z" fill-rule="evenodd" data-name="Path 109"/></g></g><g data-name="freepik--Lightnings--inject-28"><path d="m155.329 260.727-19.75 44.033 15.7-4.166-11.333 39.58 24.679-53.502-15.095 3.49 5.799-29.435Z" fill="#d6e4e5" fill-rule="evenodd" data-name="Path 110"/><path d="m155.329 260.727-19.75 44.033 15.7-4.166-11.333 39.58 24.679-53.502-15.095 3.49 5.799-29.435Z" fill="#fff" fill-rule="evenodd" data-name="Path 111"/><path d="m177.612 297.572-16.268 15.894 7.598.885-11.8 15.397 20.06-19.196-7.224-1.08 7.634-11.9Z" fill="#d6e4e5" fill-rule="evenodd" data-name="Path 112"/><path d="m177.612 297.572-16.268 15.894 7.598.885-11.8 15.397 20.06-19.196-7.224-1.08 7.634-11.9Z" fill="#fff" fill-rule="evenodd" data-name="Path 113"/><path d="m124.549 300.796-1.569 22.685 6.267-4.396 1.432 19.34 2.202-27.672-6.109 4-2.223-13.957Z" fill="#d6e4e5" fill-rule="evenodd" data-name="Path 114"/><path d="m124.549 300.796-1.569 22.685 6.267-4.396 1.432 19.34 2.202-27.672-6.109 4-2.223-13.957Z" fill="#fff" fill-rule="evenodd" data-name="Path 115"/></g><g data-name="freepik--Character--inject-28"><path d="M261.685 292.003c-9.433 1.065-10.792 5.922-11.771 13.282-.979 7.36-3.403 20.916-3.403 20.916l-17.563 16.225-5.317 1.525a7.915 7.915 0 0 0-2.159.95c-1.007.647-2.014 1.338-3.014 1.935-.328.151-.598.403-.77.72-.135.404-.003.85.33 1.115.334.258.754.379 1.174.338.415-.04.824-.134 1.215-.28l1.842-.583c.251-.097.516-.153.785-.166.279-.012.547.11.72.331.337.504-6.268 8.296-9.39 9.692-.842.374-.223 3.036 3.18 1.252.508.557 1.25.842 2 .77h2.878c.934.05 1.871-.028 2.784-.23a8.49 8.49 0 0 0 3.497-2.21c2.547-2.417 4.022-5.59 4.943-8.9l19.268-13.958 2.425-2.158a9.13 9.13 0 0 0 2.813-4.677c1.252-5.23 3.842-16.354 4.173-20.42.41-5.345-.64-15.469-.64-15.469Z" fill="#ffa8a7" fill-rule="evenodd" data-name="Path 116"/><path d="m233.229 338.49-1.44 1.31c2.757 1.928 3.483 5.036 3.037 8.044l3.72-2.684a13.83 13.83 0 0 0-1.403-3.367 7.663 7.663 0 0 0-3.914-3.303Z" fill-rule="evenodd" data-name="Path 117"/><path d="M230.157 346.642a4.799 4.799 0 0 1-6.051 1.676 3.691 3.691 0 0 0 3.597 1.05 3.597 3.597 0 0 0 2.454-2.726Z" fill-rule="evenodd" data-name="Path 118"/><path d="M261.685 292.003c-13.591 1.367-12.232 8.34-13.419 15.513-1.187 7.173-2.597 18.21-2.597 18.21s-11.807 10.886-13.627 12.383c-1.82 1.496-1.238 2.604-1.238 2.604l1-.928c3.742.892 4.886 5.684 4.54 6.958l-1.252.913c1.562.72 2.116-.093 4.224-1.525 1.712-1.151 10.792-7.914 16.095-11.634a14.203 14.203 0 0 0 4.885-6.015c5.835-13.34 7.224-28.845 1.389-36.479Z" fill="#d6e4e5" fill-rule="evenodd" data-name="Path 119"/><path d="M261.685 292.003c-13.591 1.367-12.232 8.34-13.419 15.513-1.187 7.173-2.597 18.21-2.597 18.21s-11.807 10.886-13.627 12.383c-1.82 1.496-1.238 2.604-1.238 2.604l1-.928c3.742.892 4.886 5.684 4.54 6.958l-1.252.913c1.562.72 2.116-.093 4.224-1.525 1.712-1.151 10.792-7.914 16.095-11.634a14.203 14.203 0 0 0 4.885-6.015c5.835-13.34 7.224-28.845 1.389-36.479Z" fill="#8bbabe" fill-rule="evenodd" data-name="Path 120"/><path d="M256.497 301.026c-3.878 9.692 2.058 20.21.173 32.464a14.34 14.34 0 0 0 3.597-5.037c4.454-10.188 6.318-21.628 4.353-29.873l-8.123 2.446Z" fill-rule="evenodd" data-name="Path 121"/><path d="M242.683 461.229a9.353 9.353 0 0 0 7 2.576c2.564-.167 5.076-.801 7.412-1.871 2.367-.971 5.338-3.698 7.914-3.648a61.876 61.876 0 0 0 7.483-.51 38.953 38.953 0 0 0-1.065-10.146l-11.95-.309c-3.224 4.418-9.498 8.094-14.247 9.476a4.173 4.173 0 0 0-2.95 3.137.296.296 0 0 0 0 .079c.082.42.218.83.403 1.216Z" fill="#37474f" fill-rule="evenodd" data-name="Path 122"/><path d="M264.995 458.286c-2.562-.05-5.533 2.677-7.915 3.648a21.075 21.075 0 0 1-7.41 1.87 9.354 9.354 0 0 1-7.001-2.575 5.04 5.04 0 0 1-.41-1.216.295.295 0 0 1 0-.08 3.741 3.741 0 0 0 0 1.598c.084.421.222.83.41 1.216a9.353 9.353 0 0 0 7 2.576 21.231 21.231 0 0 0 7.411-1.87c2.367-.972 5.339-3.7 7.915-3.649 2.462.021 4.923-.12 7.367-.424.058-.533.094-1.072.115-1.605-2.481.322-4.98.492-7.482.511Z" fill="#263238" fill-rule="evenodd" data-name="Path 123"/><path d="M318.439 452.17c.281 1.277.429 2.579.439 3.886a9.03 9.03 0 0 1-2.288 6.295c-1.382 1.403-3.31 2.123-5.21 2.655a12.512 12.512 0 0 1-5.165.561 5.85 5.85 0 0 1-3.44-1.813v.065a5.418 5.418 0 0 0 4.166 2.813 12.512 12.512 0 0 0 5.166-.56c1.9-.533 3.828-1.253 5.21-2.656a9.008 9.008 0 0 0 2.287-6.288 18.591 18.591 0 0 0-.438-3.885 6.569 6.569 0 0 1 1.043-5.087c.26-.356.5-.726.72-1.108.3-.543.37-1.183.194-1.778-.072-.23-.144-.46-.224-.676-.345.633-1.158 2.159-1.374 2.46a6.583 6.583 0 0 0-1.086 5.116Z" fill="#263238" fill-rule="evenodd" data-name="Path 124"/><path d="M306.006 440.953a14.189 14.189 0 0 1 .676 7.915 30.08 30.08 0 0 1-2.64 7.62 19.922 19.922 0 0 0-1.44 3.597 5.698 5.698 0 0 0 .166 3.727 5.85 5.85 0 0 0 3.475 1.784 12.512 12.512 0 0 0 5.166-.561c1.9-.532 3.828-1.252 5.21-2.655a9.03 9.03 0 0 0 2.287-6.296 18.71 18.71 0 0 0-.438-3.885 6.583 6.583 0 0 1 1.043-5.087c.216-.309 1.029-1.827 1.374-2.46a14.347 14.347 0 0 0-3.029-4.98l-11.85 1.281Z" fill="#37474f" fill-rule="evenodd" data-name="Path 125"/><path d="M258.965 344.52s-3.022 43.702-2.763 54.746c.26 11.044 1.375 48.926 1.375 48.926 6.374 5.439 18.073 1.021 18.073 1.021.72-34.845 2.468-36.73.23-49.48 1.583-9.468 3.08-25.901 3.08-25.901 2.108 18.145 3.396 27.031 3.993 30.837.25 1.556.735 3.065 1.44 4.476l18.094 36.694c9.354 6 17.635-7.612 17.635-7.612-10.483-28.816-12.907-30.86-17.325-36.026-.173-30.765-2.41-57.077-2.41-57.077l-41.422-.605Z" fill="#455a64" fill-rule="evenodd" data-name="Path 126"/><path d="M270.276 365.291c1.302 3.296 6.41 4.943 6.41 4.943s-.086 13.354-.604 28.248c1.504-9.591 2.878-24.708 2.878-24.708l-.453-5.187a19.311 19.311 0 0 1-8.231-3.296Z" fill-rule="evenodd" data-name="Path 127"/><path d="M301.43 352.988c-14.692 3.346-27.298 3.727-43.508-2.159-4.274-1.554 1-14.972 1.345-23.117.346-8.145-2.266-18.88-2.69-23.089-.425-4.209.143-11.512 5.108-12.62 9.217-1.95 26.535 0 26.535 0l10.339 11.426c4.353 22.326 10.505 47.825 2.87 49.559Z" fill="#8bbabe" fill-rule="evenodd" data-name="Path 128"/><path d="M256.807 277.26a9.41 9.41 0 0 1-2.238-7.51 8.936 8.936 0 0 1 5.216-6.944c-.496-.252-.97-.669-1.439-.92a2.784 2.784 0 0 1 2.511-.13 5.756 5.756 0 0 1-.791-2.31c.91.252 1.686.851 2.158 1.67a5.26 5.26 0 0 1 1.886-4.872 5.137 5.137 0 0 1 5.115-.633c1.389.612 2.446 1.82 3.835 2.418 1.45.5 3.001.641 4.518.41a11.512 11.512 0 0 1 4.548.23c1.439.49 2.748 1.799 2.676 3.324a7.432 7.432 0 0 1 3.878 6.397c0 2.547-.993 4.986-2.158 7.252-1.331 2.554-3.044 5.109-5.663 6.31-2.014.928-4.317.943-6.518.9a41.88 41.88 0 0 1-9.195-.907 16.678 16.678 0 0 1-8.34-4.684Z" fill="#e0e0e0" fill-rule="evenodd" data-name="Path 129"/><path d="M266.189 288.233c.23 1.727.72 5.598.971 7.318 4.317 4.137 12.815-.662 13.822-3.18-.806-1.512-2-6.829-2.375-8.498-3.77 1.713-8.353 3.569-12.418 4.36Z" fill="#ffa8a7" fill-rule="evenodd" data-name="Path 130"/><path d="M266.189 288.233c.23 1.727.561 4.252.791 5.972 10.376-2.763 12.678-5.036 11.973-9.044-.13-.424-.245-.849-.346-1.28-3.77 1.697-8.353 3.56-12.418 4.352Z" fill-rule="evenodd" data-name="Path 131"/><path d="M279.694 284.29a5.037 5.037 0 0 1-2.065 4.188 14.937 14.937 0 0 1-4.317 2.158 30.936 30.936 0 0 1-6.317 1.835 10.411 10.411 0 0 1-6.418-.942c-2.418-1.339-3.957-3.907-4.67-6.577-.712-2.669-.683-5.468-.662-8.23-.038-1.87.102-3.74.418-5.584.381-1.835 1.086-5.116 6.842-7.994.144 1.26 1.799 1.986 3.058 2.159a7.533 7.533 0 0 0 3.691-.77c1.142-.563 2.37-.93 3.633-1.086 2.346-.13 4.533 1.439 5.8 3.403 1.266 1.964-2.612 7.382-2.195 9.699.062.577.254 1.133.561 1.626.331.5.965.703 1.526.489.417-.216.604-.72.849-1.094a3.597 3.597 0 0 1 5.173-.72 4.317 4.317 0 0 1 .72 5.383c-1.065 1.676-3.67 2.33-5.627 2.057Z" fill="#ffa8a7" fill-rule="evenodd" data-name="Path 132"/><path d="m264.282 276.988-4.525 5.007 3.878 1.569.647-6.576Z" fill="#f28f8f" fill-rule="evenodd" data-name="Path 133"/><path d="m263.203 288.442 4.375-1.13a2.655 2.655 0 0 0-2.878-1.439c-1.058.216-1.598 1.475-1.497 2.569Z" fill="#f28f8f" fill-rule="evenodd" data-name="Path 134"/><path d="m263.203 288.442 4.375-1.13a2.655 2.655 0 0 0-2.878-1.439c-1.058.216-1.598 1.475-1.497 2.569Z" fill-rule="evenodd" data-name="Path 135"/><path d="M270.074 278.39a1.18 1.18 0 1 1-2.347-.241 1.18 1.18 0 0 1 2.347.242Z" fill="#263238" fill-rule="evenodd" data-name="Path 136"/><path d="M260.246 277.03a1.18 1.18 0 1 1-2.349-.227 1.18 1.18 0 0 1 2.349.228Z" fill="#263238" fill-rule="evenodd" data-name="Path 137"/><path d="m257.138 272.059 3.13-.576a1.676 1.676 0 0 1-1.224 1.483 2 2 0 0 1-1.906-.907Z" fill="#e0e0e0" fill-rule="evenodd" data-name="Path 138"/><path d="m271.98 274.095-2.748-1.604c-.182.68.08 1.4.655 1.806.68.338 1.492.26 2.094-.202Z" fill="#e0e0e0" fill-rule="evenodd" data-name="Path 139"/><path d="M266.606 286.24a2.353 2.353 0 0 0-1.079.274c-.607.34-1.035.929-1.173 1.611l3.202-.827a2.31 2.31 0 0 0-.95-1.058Z" fill="#f28f8f" fill-rule="evenodd" data-name="Path 140"/><path d="M264.117 275.743c-.475 0-1.065-.1-1.54-.108a11.512 11.512 0 0 0-9.08-2.482l-.216 1.287.72.403.266 3.404a2.878 2.878 0 0 0 1.799 2.475l.935.381a3.597 3.597 0 0 0 4.317-1.295 7.303 7.303 0 0 0 1.115-2.425.532.532 0 0 1 .561-.431l.554.05c.25.03.446.23.468.482.134 1.231.478 2.43 1.015 3.547a3.598 3.598 0 0 0 2.878 2.058l.985.086a3.597 3.597 0 0 0 3.67-2.317c.467-1.204.725-2.479.762-3.77h.72l.15-.957c-2.359-1.28-7.964-1.676-10.08-.388Zm-2.62 1.439a6.396 6.396 0 0 1-.978 2.1 2.626 2.626 0 0 1-2.158 1.145 2.705 2.705 0 0 1-1.007-.202l-.936-.381a1.935 1.935 0 0 1-1.209-1.662s-.33-4.058-.36-4.21h.432a9.879 9.879 0 0 1 6.476 2.21 6.3 6.3 0 0 1-.26.993Zm10.196 3.353a2.633 2.633 0 0 1-2.453 1.712h-.238l-.986-.094a2.626 2.626 0 0 1-2.158-1.51 9.836 9.836 0 0 1-.928-3.231c0-.317-.094-.554-.115-.964a8.54 8.54 0 0 1 3.345-.533 16.147 16.147 0 0 1 4.195.54v.662a10.477 10.477 0 0 1-.662 3.41Z" fill="#37474f" fill-rule="evenodd" data-name="Path 141"/><path d="m274.24 276.131 5.526.964a6.76 6.76 0 0 0-.533.756l-5.144-.763.151-.957Z" fill="#37474f" fill-rule="evenodd" data-name="Path 142"/><path d="m295.307 299.832-9.353 5.684c2.582 10.907 8.137 22.815 8.137 22.815s-4.36 11.907-7.274 16.548c-2.914 4.64-.863 6.915-.863 6.915a10.505 10.505 0 0 0-.562 3.554 90.725 90.725 0 0 0 16.06-2.346c7.633-1.734 1.482-27.233-2.879-49.559l-3.266-3.611Z" fill-rule="evenodd" data-name="Path 143"/><path d="m294.02 354.895 13.792-20.261a10.39 10.39 0 0 0 1.31-9.095c-2.332-7-6.419-19.426-7.246-22.535a14.52 14.52 0 0 0-13.67-10.965c-10.886-.863 10.073 36.94 10.073 36.94l-10.793 22.548a14.39 14.39 0 0 0-1.396 5.756l-.252 8.059c-.017.433.074.863.267 1.252a11.857 11.857 0 0 0 6.353 5.863 1.324 1.324 0 0 0 .986-2.453 8.504 8.504 0 0 1-3.684-3.108l3.72 1.28c.666.229 1.403.11 1.964-.316l3.216-2.454a1.95 1.95 0 0 0 .72-1.086l.352-1.518a1.439 1.439 0 0 0-1.597-1.741l-1.475.215c.172-4.799-2.64-6.381-2.64-6.381Z" fill="#ffa8a7" fill-rule="evenodd" data-name="Path 144"/><path d="M296.703 361.248v2.835l.41-.547a1.583 1.583 0 0 0-.245-2.159l-.165-.13Z" fill-rule="evenodd" data-name="Path 145"/><path d="M294.141 346.21a8.526 8.526 0 0 0-4.317.396l-1.734 3.597c3.77-.568 6.303 1.03 7.059 2.929l3.273-4.806a8.519 8.519 0 0 0-4.28-2.116Z" fill-rule="evenodd" data-name="Path 146"/><path d="M288.22 292.003c-9.037 0-1.44 15.671 0 18.786 1.439 3.116 6.921 14.937 8.483 17.52 0 0-6.893 16.362-8.562 19.052-1.67 2.691-.597 4.13-.597 4.13l.863-1.806c4.526-1.244 6.77.44 7.555 2.36l-1.044 1.554c2.77.21 2.828-1.885 5.037-5.036l8.893-12.548a12.16 12.16 0 0 0 1.72-10.577c-2.16-7.065-5.692-18.663-6.994-22.714-1.928-5.965-5.893-10.72-15.354-10.72Z" fill="#d6e4e5" fill-rule="evenodd" data-name="Path 147"/><path d="M288.22 292.003c-9.037 0-1.44 15.671 0 18.786 1.439 3.116 6.921 14.937 8.483 17.52 0 0-6.893 16.362-8.562 19.052-1.67 2.691-.597 4.13-.597 4.13l.863-1.806c4.526-1.244 6.77.44 7.555 2.36l-1.044 1.554c2.77.21 2.828-1.885 5.037-5.036l8.893-12.548a12.16 12.16 0 0 0 1.72-10.577c-2.16-7.065-5.692-18.663-6.994-22.714-1.928-5.965-5.893-10.72-15.354-10.72Z" fill="#8bbabe" fill-rule="evenodd" data-name="Path 148"/><path d="M296.703 328.31c2.827-1.584 6.547-.245 7.195.949-3.072-6.547-6.763-3.144-7.598-1.67l.403.72Z" fill-rule="evenodd" data-name="Path 149"/><path d="M213.306 350.887a.95.95 0 0 1-.094-.964c.138-.327.356-.614.634-.835.287-.237.618-.446.942-.72.367-.308.608-.74.677-1.215.057-.482 0-.921 0-1.28a.72.72 0 0 1 .51-.656c.324-.115.777-.122 1.267-.259.262-.076.506-.203.72-.374.204-.183.372-.402.496-.647.46-.936.453-1.857.805-2.519.145-.296.405-.52.72-.618.378-.07.766-.07 1.144 0 .421.061.848.083 1.273.064.417-.03.827-.121 1.216-.273a4.087 4.087 0 0 0 1.77-1.317 4.432 4.432 0 0 1-4.173.921 3.684 3.684 0 0 0-1.388-.05c-.53.118-.986.455-1.252.928-.497.892-.511 1.85-.864 2.511a1.13 1.13 0 0 1-.72.64c-.359.116-.812.123-1.316.31a1.475 1.475 0 0 0-.683.518 1.576 1.576 0 0 0-.252.798c0 .504.086.914.072 1.274 0 .72-.72 1.187-1.26 1.756-.28.29-.476.65-.568 1.043a.986.986 0 0 0 .324.964Z" fill="#d6e4e5" fill-rule="evenodd" data-name="Path 150"/><path d="M227.746 361.356a4.072 4.072 0 0 0 4.202-.353 4.43 4.43 0 0 0 .914-.885c.256-.351.457-.74.597-1.151a5.54 5.54 0 0 1 .928-2.065c.446-.482 1.238-.417 2.108-.525.468-.05.91-.24 1.267-.547.33-.302.578-.684.72-1.108.287-.777.337-1.526.625-2.159a1.763 1.763 0 0 1 1.403-1.201 1.827 1.827 0 0 0-1.69 1.043c-.331.674-.617 1.368-.857 2.08a2.26 2.26 0 0 1-.597.834 1.814 1.814 0 0 1-.943.338c-.367.036-.777 0-1.23.087a2.159 2.159 0 0 0-1.31.597 5.526 5.526 0 0 0-1.071 2.374 3.598 3.598 0 0 1-1.18 1.813 4.202 4.202 0 0 1-3.886.828Z" fill="#d6e4e5" fill-rule="evenodd" data-name="Path 151"/><path d="M220.127 362.435c.28.617.8 1.093 1.439 1.317a2.619 2.619 0 0 0 2.237-.159c.305-.185.625-.344.957-.475.31-.093.64-.093.95 0 .662.18 1.353.655 2.195.85 1.621.399 3.336.015 4.633-1.037a5.036 5.036 0 0 0 1.82-3.648 5.504 5.504 0 0 1-2.158 3.217 5.108 5.108 0 0 1-4.13.77c-.72-.152-1.36-.59-2.202-.806-.437-.112-.899-.09-1.323.064-.359.16-.699.358-1.015.59a2.525 2.525 0 0 1-3.403-.683Z" fill="#d6e4e5" fill-rule="evenodd" data-name="Path 152"/><path d="M241.38 325.446a2.238 2.238 0 0 0 1.404-2 6.087 6.087 0 0 0-.626-2.763 5.699 5.699 0 0 1-.619-2.62c.058-.841.72-1.54 1.374-2.295.37-.387.694-.817.964-1.28.265-.499.42-1.048.454-1.612a10.546 10.546 0 0 0-.425-2.993 6.555 6.555 0 0 1-.216-2.612c.067-.81.52-1.538 1.216-1.957a2.569 2.569 0 0 0-1.611 1.87 6.475 6.475 0 0 0-.072 2.828c.196.917.28 1.855.252 2.792a3.907 3.907 0 0 1-1.252 2.353c-.362.384-.694.795-.993 1.23a3.303 3.303 0 0 0-.554 1.612 5.993 5.993 0 0 0 .849 2.964c.452.755.744 1.595.856 2.468a2.158 2.158 0 0 1-1 2.015Z" fill="#d6e4e5" fill-rule="evenodd" data-name="Path 153"/><path d="M257.008 290.81a1.439 1.439 0 0 0-1.31-.605 3.209 3.209 0 0 0-1.546.611c-.441.325-.925.587-1.44.777a2.784 2.784 0 0 1-1.604-.158 1.95 1.95 0 0 0-1.014.065 2.072 2.072 0 0 0-.82.554 3.554 3.554 0 0 0-.85 1.604c-.258 1.115-.258 2.159-.669 2.979.569-.72.72-1.842 1.058-2.878.16-.513.442-.98.82-1.36a1.44 1.44 0 0 1 1.367-.446c.267.05.547.151.878.202.33.05.67.021.986-.087a5.475 5.475 0 0 0 1.518-.935 3.31 3.31 0 0 1 1.346-.72c.466-.099.95.05 1.28.396Z" fill="#d6e4e5" fill-rule="evenodd" data-name="Path 154"/><path d="M247.194 292.155c.111-.56.31-1.1.59-1.598a1.59 1.59 0 0 1 1.554-.762c.634.036 1.267.323 1.921.388.608.12 1.23-.12 1.598-.619a1.655 1.655 0 0 1-1.562.396 15.873 15.873 0 0 0-1.935-.475 1.878 1.878 0 0 0-1.058.202c-.3.17-.549.419-.72.72a3.986 3.986 0 0 0-.388 1.748Z" fill="#d6e4e5" fill-rule="evenodd" data-name="Path 155"/><path d="M309.906 340.195a14.975 14.975 0 0 0 2.547-1.1 5.857 5.857 0 0 0 2.302-2.16c.289-.519.458-1.096.496-1.69a7.252 7.252 0 0 0-.122-1.734 7.735 7.735 0 0 1-.201-3.1c.215-.943.957-1.857 1.244-3.088a3.151 3.151 0 0 0-.144-1.877 5.296 5.296 0 0 0-.935-1.44 27.735 27.735 0 0 1-2.043-2.215 2.878 2.878 0 0 1-.626-2.49 2.878 2.878 0 0 0 .244 2.727c.543.868 1.154 1.69 1.828 2.46a3.03 3.03 0 0 1 .72 2.634c-.23.928-.986 1.82-1.31 3.065a7.965 7.965 0 0 0 .252 3.518 4.425 4.425 0 0 1-.115 2.878 5.857 5.857 0 0 1-1.864 2.159 22.763 22.763 0 0 1-2.273 1.453Z" fill="#d6e4e5" fill-rule="evenodd" data-name="Path 156"/><path d="M310.121 346.404c-.438-1.223.21-2.712 1.36-3.597 1.151-.885 2.742-1.51 4.101-2.619a4.77 4.77 0 0 0 1.547-2.158c.271-.806.362-1.66.266-2.504a12.23 12.23 0 0 0-1.438-4.101c.447 1.34.732 2.729.848 4.137a5.669 5.669 0 0 1-.36 2.209 4.418 4.418 0 0 1-1.366 1.791c-1.209 1.007-2.814 1.633-3.993 2.785a4.195 4.195 0 0 0-1.216 2.007 2.69 2.69 0 0 0 .251 2.05Z" fill="#d6e4e5" fill-rule="evenodd" data-name="Path 157"/><path d="M298.897 370.594a4.274 4.274 0 0 0 2.281-.813 4.317 4.317 0 0 0 1.612-2.252 4.626 4.626 0 0 0-.101-3.015c-.396-.964-1.007-1.748-.791-2.446.15-.426.347-.834.59-1.216.296-.5.406-1.089.309-1.662a4.317 4.317 0 0 0-1.85-2.396 4 4 0 0 1-1.61-1.835 1.439 1.439 0 0 1 .841-1.842c-.409.03-.775.266-.971.626a2.05 2.05 0 0 0-.26 1.288 4.152 4.152 0 0 0 1.57 2.274 3.914 3.914 0 0 1 1.438 2.029c.045.389-.05.781-.266 1.108a5.995 5.995 0 0 0-.676 1.439 2.519 2.519 0 0 0 .23 1.705c.223.475.482.878.647 1.274.341.796.422 1.68.23 2.525a4.367 4.367 0 0 1-3.223 3.209Z" fill="#d6e4e5" fill-rule="evenodd" data-name="Path 158"/><path d="M282.306 365.716a3.727 3.727 0 0 1-1.08-2.54 3.338 3.338 0 0 1 .26-1.439c.23-.47.518-.91.856-1.31a2.964 2.964 0 0 0 .72-1.813 3.289 3.289 0 0 0-.778-1.842 7.193 7.193 0 0 1-.92-1.352 1.036 1.036 0 0 1 .157-1.137c.381-.42.787-.817 1.216-1.187.256-.248.468-.537.626-.856.165-.353.23-.743.187-1.13a4.123 4.123 0 0 0-.791-1.784 5.49 5.49 0 0 1-.755-1.382 3.41 3.41 0 0 1 .338-2.827 3.741 3.741 0 0 1 2.244-1.612 3.648 3.648 0 0 0-2.626 1.331 3.856 3.856 0 0 0-.72 3.324c.296 1.252 1.282 2.159 1.325 3.044 0 .444-.204.863-.554 1.136-.476.395-.921.825-1.331 1.288a2.223 2.223 0 0 0-.454 1.065c-.046.393.016.791.18 1.151a7.64 7.64 0 0 0 1.094 1.547c.34.349.57.789.662 1.267a2.302 2.302 0 0 1-.46 1.316 6.62 6.62 0 0 0-.8 1.54 3.784 3.784 0 0 0 1.44 4.187Z" fill="#d6e4e5" fill-rule="evenodd" data-name="Path 159"/><path d="M287.544 340.994a2.158 2.158 0 0 1 0-1.763 5.589 5.589 0 0 1 1.108-1.662 8.138 8.138 0 0 0 1.352-1.842 4.072 4.072 0 0 0 .223-2.417 5.82 5.82 0 0 1-.093-2.159 2.525 2.525 0 0 1 1.245-1.439 6.713 6.713 0 0 0 1.683-1.288 1.756 1.756 0 0 0 .432-1.798 1.713 1.713 0 0 1-.655 1.59 7.649 7.649 0 0 1-1.727 1.05c-.345.177-.664.4-.95.662a2.418 2.418 0 0 0-.661 1.08 5.69 5.69 0 0 0 .036 2.395c.16.682.112 1.396-.137 2.05a8.785 8.785 0 0 1-1.158 1.785 5.324 5.324 0 0 0-.993 1.892 2.159 2.159 0 0 0 .295 1.864Z" fill="#d6e4e5" fill-rule="evenodd" data-name="Path 160"/><path d="M289.71 321.071a.964.964 0 0 1-.634-.72 2.95 2.95 0 0 1-.079-1.05 2.525 2.525 0 0 0-.187-1.245 1.885 1.885 0 0 0-1.072-.849c-.813-.287-1.705-.41-1.907-1a1.67 1.67 0 0 1 0-1.029c.094-.374.274-.77.41-1.223.17-.487.186-1.015.043-1.51a2.677 2.677 0 0 0-.885-1.195c-.683-.576-1.438-.993-1.597-1.64-.158-.648.252-1.368.554-2.065.161-.351.252-.73.266-1.116a1.295 1.295 0 0 0-.366-.978 1.828 1.828 0 0 1-.21 1.935c-.186.317-.416.64-.596 1.022a2.1 2.1 0 0 0-.23 1.331c.106.47.358.896.719 1.216.324.324.669.583.964.856.62.426.854 1.229.561 1.921-.201.72-.762 1.698-.338 2.777.243.473.674.82 1.187.957.44.144.856.202 1.216.31.348.073.654.276.856.568.168.312.26.66.267 1.015.011.382.097.758.251 1.108.144.329.45.558.806.604Z" fill="#d6e4e5" fill-rule="evenodd" data-name="Path 161"/><path d="M286.767 337.188a1.655 1.655 0 0 1 .302-1.137c.263-.367.556-.711.878-1.029.362-.374.612-.843.72-1.353a2.957 2.957 0 0 0-.31-1.575 4.863 4.863 0 0 1-.454-1.346c-.029-.436.137-.863.454-1.165.32-.316.664-.607 1.029-.87.338-.274.661-.533.956-.785-.338.187-.719.396-1.072.619-.41.226-.798.491-1.158.791a1.806 1.806 0 0 0-.64 1.44c.063.524.22 1.033.46 1.503.211.411.318.868.31 1.33a2.561 2.561 0 0 1-.59 1.195 6.027 6.027 0 0 0-.785 1.151c-.195.38-.231.824-.1 1.23Z" fill="#d6e4e5" fill-rule="evenodd" data-name="Path 162"/><path d="M305.84 304.99a2.446 2.446 0 0 0 .576-1.87 2.589 2.589 0 0 0-.338-1.072 2.835 2.835 0 0 0-.813-.864 4.174 4.174 0 0 1-.777-.72 1 1 0 0 1-.166-.834c.13-.662.677-1.28.87-2.202a1.654 1.654 0 0 0 0-.72 1.439 1.439 0 0 0-.41-.661 2.59 2.59 0 0 0-1.23-.547c-.791-.165-1.439-.28-1.77-.878-.33-.597-.503-1.374-1.072-1.9-.568-.524-1.626-.38-1.712.296a.72.72 0 0 1 .72-.453c.304-.01.595.129.777.374.41.489.467 1.209.827 1.95.195.4.523.72.928.906.374.157.762.28 1.158.367.33.058.638.196.9.403.2.2.278.49.209.763-.116.647-.655 1.316-.828 2.201-.089.48.037.975.345 1.353.28.286.6.528.95.72a2.468 2.468 0 0 1 .856 3.388Z" fill="#d6e4e5" fill-rule="evenodd" data-name="Path 163"/><path d="M308.064 311.185a2.065 2.065 0 0 0 .15-1.59 6.95 6.95 0 0 0-.719-1.64 2.806 2.806 0 0 1 0-3.332c.362-.593.565-1.27.59-1.964a2.698 2.698 0 0 0-.964-1.763c-.437-.36-.803-.8-1.08-1.295a1.223 1.223 0 0 1 .224-1.403c-.47.338-.66.944-.468 1.49.219.57.56 1.086 1 1.51.41.393.665.919.72 1.483a3.965 3.965 0 0 1-.569 1.683 3.972 3.972 0 0 0-.56 1.972c.072.666.32 1.302.719 1.842.338.468.627.97.863 1.496.22.474.253 1.014.094 1.511Z" fill="#d6e4e5" fill-rule="evenodd" data-name="Path 164"/><path d="M284.651 369.716a29.933 29.933 0 0 1-2.676-1.791 6.418 6.418 0 0 1-2.123-2.77 5.82 5.82 0 0 1 .065-3.468c.302-1.13.597-2.21.799-3.152-.389.885-.813 1.9-1.21 3.03a5.59 5.59 0 0 0-.193 3.777 6.044 6.044 0 0 0 2.403 2.928c.92.591 1.905 1.076 2.935 1.446Z" fill="#d6e4e5" fill-rule="evenodd" data-name="Path 165"/><path d="M253.202 444.601a2.05 2.05 0 0 1-.676-2.424c.295-.914 1-1.684 1.554-2.72.295-.553.46-1.165.482-1.792a2.727 2.727 0 0 0-.72-1.856c-.424-.482-.892-.835-1.216-1.223-.309-.31-.46-.745-.41-1.18.117-.485.34-.937.655-1.324.361-.475.688-.975.979-1.496.32-.6.423-1.29.295-1.957a4.792 4.792 0 0 0-.72-1.663c-.633-.942-1.324-1.72-1.496-2.647a1.712 1.712 0 0 1 1.223-2.08 1.44 1.44 0 0 0-1.238.634c-.327.43-.488.964-.453 1.503.072 1.123.777 2.087 1.273 3 .262.444.44.932.526 1.44.058.467-.04.94-.281 1.345-.288.472-.606.927-.95 1.36a4.173 4.173 0 0 0-.856 1.784c-.052.378-.012.763.115 1.123.129.332.319.638.561.899.446.49.914.827 1.267 1.202.339.314.542.747.568 1.208.01.495-.089.986-.288 1.44a15.04 15.04 0 0 0-1.28 2.942 2.8 2.8 0 0 0 .144 1.547c.174.427.514.764.942.935Z" fill="#d6e4e5" fill-rule="evenodd" data-name="Path 166"/><path d="M254.159 412.238a2.238 2.238 0 0 0-1.403 1.288 4.382 4.382 0 0 0-.295 2.159c.05.72.201 1.482.223 2.209a3.26 3.26 0 0 1-.46 1.993c-.375.56-1.05.985-1.569 1.647a3.345 3.345 0 0 0-.647 2.317 7.274 7.274 0 0 0 1.683 3.684c-.49-1.065-1.173-2.317-1.158-3.698a2.935 2.935 0 0 1 .64-1.885 22.615 22.615 0 0 0 1.633-1.662c.45-.727.64-1.584.54-2.432-.058-.806-.252-1.533-.36-2.238a4.273 4.273 0 0 1 .065-1.986c.159-.6.56-1.105 1.108-1.396Z" fill="#d6e4e5" fill-rule="evenodd" data-name="Path 167"/><path d="M240.136 461.884a3.67 3.67 0 0 1-.72-2.159 3.403 3.403 0 0 1 .82-2.238 5.756 5.756 0 0 1 2.246-1.36 3.555 3.555 0 0 0 1.273-1c.185-.24.315-.517.381-.813a3.66 3.66 0 0 0 .072-.813 2.512 2.512 0 0 1 .144-1.187c.144-.244.44-.338.87-.323.433.014.9.115 1.44.1a4.073 4.073 0 0 0 1.475-.316 3.871 3.871 0 0 0 2.022-1.864 3.8 3.8 0 0 0 .345-2.374 3.82 3.82 0 0 1-2.605 3.597 3.598 3.598 0 0 1-1.237.18c-.403 0-.856-.137-1.389-.173-.29-.03-.584 0-.863.087a1.44 1.44 0 0 0-.784.604 2.921 2.921 0 0 0-.288 1.64 1.72 1.72 0 0 1-.274 1.123 2.792 2.792 0 0 1-.957.77c-.395.216-.834.41-1.266.67a3.901 3.901 0 0 0-1.115 1.02 3.698 3.698 0 0 0-.72 2.677 3.54 3.54 0 0 0 1.13 2.152Z" fill="#d6e4e5" fill-rule="evenodd" data-name="Path 168"/><path d="M244.108 450.544a1.295 1.295 0 0 0-1.684.626 17.579 17.579 0 0 0-.72 2.036 1.633 1.633 0 0 1-.611.756c-.29.155-.597.278-.914.367a2.31 2.31 0 0 0-.9.482c-.245.2-.384.503-.373.82.072-.59.72-.928 1.345-1.065.36-.072.708-.19 1.036-.352.34-.213.604-.528.756-.9.31-.72.323-1.439.626-2.043a1.237 1.237 0 0 1 1.439-.727Z" fill="#d6e4e5" fill-rule="evenodd" data-name="Path 169"/><path d="M276.276 455.48c.441-.28.768-.709.921-1.209.163-.53.229-1.086.194-1.64-.057-1.144-.388-2.274-.2-3.317.079-.503.333-.962.719-1.295.395-.381.913-.72 1.403-1.26.272-.293.47-.649.575-1.035.097-.414.07-.847-.079-1.245-.278-.6-.61-1.173-.993-1.712a1.036 1.036 0 0 1-.1-1.173c.38-.414.815-.772 1.294-1.065.296-.212.557-.466.778-.755.229-.324.372-.7.417-1.094a3.295 3.295 0 0 0-.518-2c-.72-1.13-1.655-1.77-2.159-2.67-.503-.899-.554-2.079.274-2.662-.478.23-.814.679-.9 1.202a2.791 2.791 0 0 0 .173 1.683c.453 1.087 1.396 1.914 1.864 2.878.24.44.34.942.287 1.44a1.64 1.64 0 0 1-.842 1.1 5.992 5.992 0 0 0-1.597 1.303 1.957 1.957 0 0 0-.345 1.251c.036.402.167.789.381 1.13.341.49.651 1.003.928 1.533.161.412.062.881-.252 1.194-.33.403-.834.777-1.295 1.266a3.108 3.108 0 0 0-.87 1.87c-.108 1.346.381 2.454.561 3.483.18 1.03.13 2.123-.619 2.799Z" fill="#d6e4e5" fill-rule="evenodd" data-name="Path 170"/><path d="M278.312 416.476a5.425 5.425 0 0 0 1.526-4.087 5.82 5.82 0 0 0-.72-2.446 3.727 3.727 0 0 1-.64-2.158c.236-.78.517-1.547.842-2.296.203-.877.07-1.799-.374-2.582a18.135 18.135 0 0 1-1-2.03 2.532 2.532 0 0 1 0-1.956 2.518 2.518 0 0 0-.295 2.05c.2.741.465 1.463.791 2.159.33.67.407 1.436.216 2.158-.375.77-.68 1.572-.914 2.396a4.209 4.209 0 0 0 .763 2.583c.404.658.669 1.393.777 2.158a5.885 5.885 0 0 1-.971 4.051Z" fill="#d6e4e5" fill-rule="evenodd" data-name="Path 171"/><path d="M253.23 393.56a3.072 3.072 0 0 1-.92-2.05c-.06-.834.088-1.67.432-2.432.64-1.612 1.95-3.18 2.302-5.267.09-.524.09-1.059 0-1.583a8.628 8.628 0 0 0-.446-1.439 3.597 3.597 0 0 1-.331-2.482c.23-.806.72-1.561.993-2.41.309-.781.177-1.667-.345-2.324.373.683.373 1.51 0 2.194-.317.72-.9 1.44-1.252 2.331a3.08 3.08 0 0 0-.188 1.518c.071.492.194.974.367 1.44.156.426.278.864.367 1.309.069.429.069.866 0 1.295-.273 1.777-1.475 3.374-2.05 5.18a5.122 5.122 0 0 0-.202 2.72 3.05 3.05 0 0 0 1.274 2Z" fill="#d6e4e5" fill-rule="evenodd" data-name="Path 172"/><path d="M301.84 451.674c.07-.443-.04-.896-.302-1.26a3.663 3.663 0 0 0-1.036-.985c-.799-.518-1.749-.935-2.087-1.734-.338-.799-.165-1.799 0-2.878.1-.565.135-1.14.108-1.712a3.065 3.065 0 0 0-.72-1.77c-.906-.979-2.064-1.202-2.784-1.785a2.684 2.684 0 0 1-.892-2.453 8.204 8.204 0 0 0-.158-3.015c-.338-.957-1.303-1.662-2.159-1.439.871.038 1.594.686 1.727 1.547a9.089 9.089 0 0 1-.115 2.871 4.756 4.756 0 0 0 .072 1.676c.142.614.487 1.16.978 1.555.95.755 2.05 1.036 2.62 1.712.568.676.532 1.662.41 2.705a14.912 14.912 0 0 0-.116 1.633 3.404 3.404 0 0 0 .389 1.684c.286.49.709.884 1.216 1.137.453.259.906.432 1.316.626.763.396 1.533 1.014 1.533 1.885Z" fill="#d6e4e5" fill-rule="evenodd" data-name="Path 173"/><path d="M322.864 438.5a2.05 2.05 0 0 0 .439-1.44 4.225 4.225 0 0 0-.425-1.59c-.496-1.028-1.288-1.899-1.59-2.913-.302-1.015.18-1.935.72-3.08a3.914 3.914 0 0 0 .496-2.072 2.562 2.562 0 0 0-.396-1.13 3.275 3.275 0 0 0-.798-.805c-1.173-.799-2.403-1.087-3.022-1.892a5.756 5.756 0 0 1-.928-3.137 7.915 7.915 0 0 0-.799-3.41 3.474 3.474 0 0 0-1.173-1.18 2.158 2.158 0 0 0-1.482-.289 2.59 2.59 0 0 1 2.209 1.698 8.404 8.404 0 0 1 .388 3.224 6.202 6.202 0 0 0 .936 3.756c.935 1.201 2.338 1.51 3.194 2.158.395.252.658.666.72 1.13a2.964 2.964 0 0 1-.353 1.503c-.28.573-.52 1.165-.72 1.77a3.173 3.173 0 0 0 .109 2.037c.503 1.23 1.439 2.007 1.964 2.878.525.87.993 1.935.51 2.784Z" fill="#d6e4e5" fill-rule="evenodd" data-name="Path 174"/><path d="M324.483 433.463a1.554 1.554 0 0 1-1.015-1.1 2.62 2.62 0 0 1 .122-1.648c.202-.561.518-1.108.792-1.727a3.85 3.85 0 0 0 .367-2.08 2.979 2.979 0 0 0-1.151-1.798 9.875 9.875 0 0 0-1.663-1.036c-1.057-.568-2.043-1.295-2.23-2.331.012.563.224 1.103.597 1.525.403.469.877.871 1.403 1.195.536.32 1.046.68 1.526 1.079.463.36.788.867.92 1.439a3.49 3.49 0 0 1-.294 1.763 18.058 18.058 0 0 0-.72 1.806c-.203.613-.18 1.28.065 1.877.198.56.693.96 1.28 1.036Z" fill="#d6e4e5" fill-rule="evenodd" data-name="Path 175"/><path d="M305.71 400.482A4.928 4.928 0 0 0 308 396.1a4.475 4.475 0 0 0-.274-1.439 13.16 13.16 0 0 0-.604-1.324c-.424-.827-.763-1.669-.446-2.367s1.151-1.259 1.792-2.08c.355-.43.557-.967.575-1.525a3.252 3.252 0 0 0-.381-1.482c-.418-.87-1.008-1.518-1.274-2.273a2.036 2.036 0 0 1 .159-2.159c-.315.245-.526.6-.59.993-.072.422-.05.854.064 1.266.29.831.636 1.642 1.036 2.425a1.993 1.993 0 0 1-.237 2.23c-.518.662-1.439 1.166-1.95 2.245a2.612 2.612 0 0 0-.093 1.698c.147.489.352.957.611 1.396a6.03 6.03 0 0 1 .95 2.446 5.115 5.115 0 0 1-1.626 4.332Z" fill="#d6e4e5" fill-rule="evenodd" data-name="Path 176"/><g data-name="Group 4"><path d="M213.306 350.887a.95.95 0 0 1-.094-.964c.138-.327.356-.614.634-.835.287-.237.618-.446.942-.72.367-.308.608-.74.677-1.215.057-.482 0-.921 0-1.28a.72.72 0 0 1 .51-.656c.324-.115.777-.122 1.267-.259.262-.076.506-.203.72-.374.204-.183.372-.402.496-.647.46-.936.453-1.857.805-2.519.145-.296.405-.52.72-.618.378-.07.766-.07 1.144 0 .421.061.848.083 1.273.064.417-.03.827-.121 1.216-.273a4.087 4.087 0 0 0 1.77-1.317 4.432 4.432 0 0 1-4.173.921 3.684 3.684 0 0 0-1.388-.05c-.53.118-.986.455-1.252.928-.497.892-.511 1.85-.864 2.511a1.13 1.13 0 0 1-.72.64c-.359.116-.812.123-1.316.31a1.475 1.475 0 0 0-.683.518 1.576 1.576 0 0 0-.252.798c0 .504.086.914.072 1.274 0 .72-.72 1.187-1.26 1.756-.28.29-.476.65-.568 1.043a.986.986 0 0 0 .324.964Z" fill="#fff" fill-rule="evenodd" data-name="Path 177"/><path d="M227.746 361.356a4.072 4.072 0 0 0 4.202-.353 4.43 4.43 0 0 0 .914-.885c.256-.351.457-.74.597-1.151a5.54 5.54 0 0 1 .928-2.065c.446-.482 1.238-.417 2.108-.525.468-.05.91-.24 1.267-.547.33-.302.578-.684.72-1.108.287-.777.337-1.526.625-2.159a1.763 1.763 0 0 1 1.403-1.201 1.827 1.827 0 0 0-1.69 1.043c-.331.674-.617 1.368-.857 2.08a2.26 2.26 0 0 1-.597.834 1.814 1.814 0 0 1-.943.338c-.367.036-.777 0-1.23.086a2.159 2.159 0 0 0-1.31.598 5.526 5.526 0 0 0-1.071 2.374 3.598 3.598 0 0 1-1.18 1.813 4.202 4.202 0 0 1-3.886.828Z" fill="#fff" fill-rule="evenodd" data-name="Path 178"/><path d="M220.127 362.435c.28.617.8 1.093 1.439 1.317a2.619 2.619 0 0 0 2.237-.159c.305-.185.625-.344.957-.475.31-.093.64-.093.95 0 .662.18 1.353.655 2.195.85 1.621.399 3.336.015 4.633-1.037a5.036 5.036 0 0 0 1.82-3.648 5.504 5.504 0 0 1-2.158 3.217 5.108 5.108 0 0 1-4.13.77c-.72-.152-1.36-.59-2.202-.806-.437-.112-.899-.09-1.323.064-.359.16-.699.358-1.015.59a2.525 2.525 0 0 1-3.403-.683Z" fill="#fff" fill-rule="evenodd" data-name="Path 179"/><path d="M241.38 325.446a2.238 2.238 0 0 0 1.404-2 6.087 6.087 0 0 0-.626-2.763 5.699 5.699 0 0 1-.619-2.62c.058-.841.72-1.54 1.374-2.295.37-.387.694-.817.964-1.28.265-.499.42-1.049.454-1.612a10.546 10.546 0 0 0-.425-2.993 6.555 6.555 0 0 1-.216-2.612c.067-.81.52-1.538 1.216-1.957a2.569 2.569 0 0 0-1.611 1.87 6.475 6.475 0 0 0-.072 2.828c.196.917.28 1.855.252 2.792a3.907 3.907 0 0 1-1.252 2.353c-.362.384-.694.795-.993 1.23a3.303 3.303 0 0 0-.554 1.612 5.993 5.993 0 0 0 .849 2.964c.452.755.744 1.595.856 2.468a2.158 2.158 0 0 1-1 2.015Z" fill="#fff" fill-rule="evenodd" data-name="Path 180"/><path d="M257.008 290.81a1.439 1.439 0 0 0-1.31-.605 3.209 3.209 0 0 0-1.546.611c-.441.325-.925.587-1.44.777a2.784 2.784 0 0 1-1.604-.158 1.95 1.95 0 0 0-1.014.065 2.072 2.072 0 0 0-.82.554 3.554 3.554 0 0 0-.85 1.604c-.258 1.115-.258 2.159-.669 2.979.569-.72.72-1.842 1.058-2.878.16-.513.442-.98.82-1.36a1.44 1.44 0 0 1 1.367-.446c.267.05.547.151.878.202.33.05.67.021.986-.087a5.475 5.475 0 0 0 1.518-.935 3.31 3.31 0 0 1 1.346-.72c.466-.099.95.05 1.28.396Z" fill="#fff" fill-rule="evenodd" data-name="Path 181"/><path d="M247.194 292.155c.111-.56.31-1.1.59-1.598a1.59 1.59 0 0 1 1.554-.762c.634.036 1.267.323 1.921.388.608.12 1.23-.12 1.598-.619a1.655 1.655 0 0 1-1.562.396 15.873 15.873 0 0 0-1.935-.475 1.878 1.878 0 0 0-1.058.202c-.3.17-.549.419-.72.72a3.986 3.986 0 0 0-.388 1.748Z" fill="#fff" fill-rule="evenodd" data-name="Path 182"/><path d="M309.906 340.195a14.975 14.975 0 0 0 2.547-1.1 5.857 5.857 0 0 0 2.302-2.16c.289-.519.458-1.096.496-1.69a7.252 7.252 0 0 0-.122-1.734 7.735 7.735 0 0 1-.201-3.1c.215-.943.957-1.857 1.244-3.088a3.151 3.151 0 0 0-.144-1.877 5.296 5.296 0 0 0-.935-1.44 27.735 27.735 0 0 1-2.043-2.215 2.878 2.878 0 0 1-.626-2.49 2.878 2.878 0 0 0 .244 2.727c.543.868 1.154 1.69 1.828 2.46a3.03 3.03 0 0 1 .72 2.634c-.23.928-.986 1.82-1.31 3.065a7.965 7.965 0 0 0 .252 3.518 4.425 4.425 0 0 1-.115 2.878 5.857 5.857 0 0 1-1.864 2.159 22.763 22.763 0 0 1-2.273 1.453Z" fill="#fff" fill-rule="evenodd" data-name="Path 183"/><path d="M310.121 346.404c-.438-1.223.21-2.712 1.36-3.597 1.151-.885 2.742-1.51 4.101-2.619a4.77 4.77 0 0 0 1.547-2.158c.271-.806.362-1.66.266-2.504a12.23 12.23 0 0 0-1.438-4.101c.447 1.34.732 2.729.848 4.137a5.669 5.669 0 0 1-.36 2.209 4.418 4.418 0 0 1-1.366 1.791c-1.209 1.007-2.814 1.633-3.993 2.785a4.195 4.195 0 0 0-1.216 2.007 2.69 2.69 0 0 0 .251 2.05Z" fill="#fff" fill-rule="evenodd" data-name="Path 184"/><path d="M298.897 370.594a4.274 4.274 0 0 0 2.281-.813 4.317 4.317 0 0 0 1.612-2.252 4.626 4.626 0 0 0-.101-3.015c-.396-.964-1.007-1.748-.791-2.446.15-.426.347-.834.59-1.216.296-.5.406-1.089.309-1.662a4.317 4.317 0 0 0-1.85-2.396 4 4 0 0 1-1.61-1.835 1.439 1.439 0 0 1 .841-1.842c-.409.03-.775.266-.971.626a2.05 2.05 0 0 0-.26 1.288 4.152 4.152 0 0 0 1.57 2.274 3.914 3.914 0 0 1 1.438 2.029c.045.389-.05.781-.266 1.108a5.995 5.995 0 0 0-.676 1.439 2.519 2.519 0 0 0 .23 1.705c.223.475.482.878.647 1.274.341.796.422 1.68.23 2.525a4.367 4.367 0 0 1-3.223 3.209Z" fill="#fff" fill-rule="evenodd" data-name="Path 185"/><path d="M282.306 365.716a3.727 3.727 0 0 1-1.08-2.54 3.338 3.338 0 0 1 .26-1.439c.23-.47.518-.91.856-1.31a2.964 2.964 0 0 0 .72-1.813 3.289 3.289 0 0 0-.778-1.842 7.193 7.193 0 0 1-.92-1.352 1.036 1.036 0 0 1 .157-1.137c.381-.42.787-.817 1.216-1.187.256-.248.468-.537.626-.856.165-.353.23-.743.187-1.13a4.123 4.123 0 0 0-.791-1.784 5.49 5.49 0 0 1-.755-1.382 3.41 3.41 0 0 1 .338-2.827 3.741 3.741 0 0 1 2.244-1.612 3.648 3.648 0 0 0-2.626 1.331 3.856 3.856 0 0 0-.72 3.324c.296 1.252 1.282 2.159 1.325 3.044 0 .444-.204.863-.554 1.136-.476.395-.921.825-1.331 1.288a2.223 2.223 0 0 0-.454 1.065c-.046.393.016.791.18 1.151a7.64 7.64 0 0 0 1.094 1.547c.34.349.57.789.662 1.267a2.302 2.302 0 0 1-.46 1.316 6.62 6.62 0 0 0-.8 1.54 3.784 3.784 0 0 0 1.44 4.187Z" fill="#fff" fill-rule="evenodd" data-name="Path 186"/><path d="M287.544 340.994a2.158 2.158 0 0 1 0-1.763 5.589 5.589 0 0 1 1.108-1.662 8.138 8.138 0 0 0 1.352-1.842 4.072 4.072 0 0 0 .223-2.417 5.82 5.82 0 0 1-.093-2.159 2.525 2.525 0 0 1 1.245-1.439 6.713 6.713 0 0 0 1.683-1.288 1.756 1.756 0 0 0 .432-1.798 1.713 1.713 0 0 1-.655 1.59 7.649 7.649 0 0 1-1.727 1.05c-.345.177-.664.4-.95.662a2.418 2.418 0 0 0-.661 1.08 5.69 5.69 0 0 0 .036 2.395c.16.682.112 1.396-.137 2.05a8.785 8.785 0 0 1-1.158 1.785 5.324 5.324 0 0 0-.993 1.892 2.159 2.159 0 0 0 .295 1.864Z" fill="#fff" fill-rule="evenodd" data-name="Path 187"/><path d="M289.71 321.071a.964.964 0 0 1-.634-.72 2.95 2.95 0 0 1-.079-1.05 2.525 2.525 0 0 0-.187-1.245 1.885 1.885 0 0 0-1.072-.849c-.813-.287-1.705-.41-1.907-1a1.67 1.67 0 0 1 0-1.029c.094-.374.274-.77.41-1.223.17-.487.186-1.015.043-1.51a2.677 2.677 0 0 0-.885-1.195c-.683-.576-1.438-.993-1.597-1.64-.158-.648.252-1.368.554-2.065.161-.351.252-.73.266-1.116a1.295 1.295 0 0 0-.366-.978 1.828 1.828 0 0 1-.21 1.935c-.186.317-.416.64-.596 1.022a2.1 2.1 0 0 0-.23 1.331c.106.47.358.896.719 1.216.324.324.669.583.964.856.62.426.854 1.229.561 1.921-.201.72-.762 1.698-.338 2.777.243.473.674.82 1.187.957.44.144.856.202 1.216.31.348.073.654.276.856.568.168.312.26.66.267 1.015.011.382.097.758.251 1.108.144.329.45.558.806.604Z" fill="#fff" fill-rule="evenodd" data-name="Path 188"/><path d="M286.767 337.188a1.655 1.655 0 0 1 .302-1.137c.263-.367.556-.711.878-1.029.362-.374.612-.843.72-1.353a2.957 2.957 0 0 0-.31-1.575 4.863 4.863 0 0 1-.454-1.346c-.029-.436.137-.863.454-1.165.32-.316.664-.607 1.029-.87.338-.274.661-.533.956-.785-.338.187-.719.396-1.072.619-.41.226-.798.491-1.158.791a1.806 1.806 0 0 0-.64 1.44c.063.524.22 1.033.46 1.503.211.411.318.868.31 1.33a2.561 2.561 0 0 1-.59 1.195 6.027 6.027 0 0 0-.785 1.151c-.195.38-.231.824-.1 1.23Z" fill="#fff" fill-rule="evenodd" data-name="Path 189"/><path d="M305.84 304.99a2.446 2.446 0 0 0 .576-1.87 2.589 2.589 0 0 0-.338-1.072 2.835 2.835 0 0 0-.813-.864 4.174 4.174 0 0 1-.777-.72 1 1 0 0 1-.166-.834c.13-.662.677-1.28.87-2.202a1.654 1.654 0 0 0 0-.72 1.439 1.439 0 0 0-.41-.661 2.59 2.59 0 0 0-1.23-.547c-.791-.165-1.439-.28-1.77-.878-.33-.597-.503-1.374-1.072-1.9-.568-.524-1.626-.38-1.712.296a.72.72 0 0 1 .72-.453c.304-.01.595.129.777.374.41.489.467 1.209.827 1.95.195.4.523.72.928.906.374.157.762.28 1.158.367.33.058.638.196.9.403.2.2.278.49.209.763-.116.647-.655 1.316-.828 2.201-.089.48.037.975.345 1.353.28.286.6.528.95.72a2.468 2.468 0 0 1 .856 3.388Z" fill="#fff" fill-rule="evenodd" data-name="Path 190"/><path d="M308.064 311.185a2.065 2.065 0 0 0 .15-1.59 6.95 6.95 0 0 0-.719-1.64 2.806 2.806 0 0 1 0-3.332c.362-.593.565-1.27.59-1.964a2.698 2.698 0 0 0-.964-1.763c-.437-.36-.803-.8-1.08-1.295a1.223 1.223 0 0 1 .224-1.403c-.47.338-.66.944-.468 1.49.219.57.56 1.086 1 1.51.41.393.665.919.72 1.483a3.965 3.965 0 0 1-.569 1.683 3.972 3.972 0 0 0-.56 1.972c.072.667.32 1.302.719 1.842.338.468.627.97.863 1.496.22.474.253 1.014.094 1.511Z" fill="#fff" fill-rule="evenodd" data-name="Path 191"/><path d="M284.651 369.716a29.933 29.933 0 0 1-2.676-1.791 6.418 6.418 0 0 1-2.123-2.77 5.82 5.82 0 0 1 .065-3.468c.302-1.13.597-2.21.799-3.152-.389.885-.813 1.9-1.21 3.03a5.59 5.59 0 0 0-.193 3.777 6.044 6.044 0 0 0 2.403 2.928c.92.591 1.905 1.076 2.935 1.446Z" fill="#fff" fill-rule="evenodd" data-name="Path 192"/><path d="M253.202 444.601a2.05 2.05 0 0 1-.676-2.424c.295-.914 1-1.684 1.554-2.72.295-.553.46-1.165.482-1.792a2.727 2.727 0 0 0-.72-1.856c-.424-.482-.892-.835-1.216-1.223-.309-.31-.46-.745-.41-1.18.117-.485.34-.937.655-1.324.361-.475.688-.975.979-1.496.32-.6.423-1.29.295-1.957a4.792 4.792 0 0 0-.72-1.663c-.633-.942-1.324-1.72-1.496-2.647a1.712 1.712 0 0 1 1.223-2.08 1.44 1.44 0 0 0-1.238.634c-.327.43-.488.964-.453 1.503.072 1.123.777 2.087 1.273 3 .262.444.44.932.526 1.44.058.467-.04.94-.281 1.345-.288.472-.606.927-.95 1.36a4.173 4.173 0 0 0-.856 1.784c-.052.378-.012.763.115 1.123.129.332.319.638.561.9.446.488.914.826 1.267 1.2.339.315.542.748.568 1.21.01.494-.089.985-.288 1.438a15.04 15.04 0 0 0-1.28 2.943 2.8 2.8 0 0 0 .144 1.547c.174.427.514.764.942.935Z" fill="#fff" fill-rule="evenodd" data-name="Path 193"/><path d="M254.159 412.238a2.238 2.238 0 0 0-1.403 1.288 4.382 4.382 0 0 0-.295 2.159c.05.72.201 1.482.223 2.209a3.26 3.26 0 0 1-.46 1.993c-.375.56-1.05.985-1.569 1.647a3.345 3.345 0 0 0-.647 2.317 7.274 7.274 0 0 0 1.683 3.684c-.49-1.065-1.173-2.317-1.158-3.698a2.935 2.935 0 0 1 .64-1.885 22.615 22.615 0 0 0 1.633-1.662c.45-.727.64-1.584.54-2.432-.058-.806-.252-1.533-.36-2.238a4.273 4.273 0 0 1 .065-1.986c.159-.6.56-1.105 1.108-1.396Z" fill="#fff" fill-rule="evenodd" data-name="Path 194"/><path d="M240.136 461.884a3.67 3.67 0 0 1-.72-2.159 3.403 3.403 0 0 1 .82-2.237 5.756 5.756 0 0 1 2.246-1.36 3.555 3.555 0 0 0 1.273-1c.185-.24.315-.518.381-.814a3.66 3.66 0 0 0 .072-.813 2.512 2.512 0 0 1 .144-1.187c.144-.244.44-.338.87-.323.433.014.9.115 1.44.1a4.073 4.073 0 0 0 1.475-.316 3.871 3.871 0 0 0 2.022-1.864 3.8 3.8 0 0 0 .345-2.374 3.82 3.82 0 0 1-2.605 3.597 3.598 3.598 0 0 1-1.237.18c-.403 0-.856-.137-1.389-.173-.29-.03-.584 0-.863.087a1.44 1.44 0 0 0-.784.604 2.921 2.921 0 0 0-.288 1.64 1.72 1.72 0 0 1-.274 1.123 2.792 2.792 0 0 1-.957.77c-.395.216-.834.41-1.266.67a3.901 3.901 0 0 0-1.115 1.02 3.698 3.698 0 0 0-.72 2.677 3.54 3.54 0 0 0 1.13 2.152Z" fill="#fff" fill-rule="evenodd" data-name="Path 195"/><path d="M244.108 450.544a1.295 1.295 0 0 0-1.684.626 17.579 17.579 0 0 0-.72 2.036 1.633 1.633 0 0 1-.611.756c-.29.155-.597.278-.914.367a2.31 2.31 0 0 0-.9.482c-.245.2-.384.503-.373.82.072-.59.72-.928 1.345-1.065.36-.072.708-.19 1.036-.352.34-.213.604-.528.756-.9.31-.72.323-1.439.626-2.043a1.237 1.237 0 0 1 1.439-.727Z" fill="#fff" fill-rule="evenodd" data-name="Path 196"/><path d="M276.276 455.48c.441-.28.768-.709.921-1.209.163-.53.229-1.086.194-1.64-.057-1.144-.388-2.274-.2-3.317.079-.503.333-.962.719-1.295.395-.381.913-.72 1.403-1.26.272-.293.47-.649.575-1.035.097-.414.07-.847-.079-1.245-.278-.6-.61-1.173-.993-1.712a1.036 1.036 0 0 1-.1-1.173c.38-.414.815-.772 1.294-1.065.296-.212.557-.466.778-.755.229-.324.372-.7.417-1.094a3.295 3.295 0 0 0-.518-2c-.72-1.13-1.655-1.77-2.159-2.67-.503-.899-.554-2.079.274-2.662-.478.23-.814.679-.9 1.202a2.791 2.791 0 0 0 .173 1.683c.453 1.087 1.396 1.914 1.864 2.878.24.44.34.942.287 1.44a1.64 1.64 0 0 1-.842 1.1 5.992 5.992 0 0 0-1.597 1.303 1.957 1.957 0 0 0-.345 1.251c.036.402.167.789.381 1.13.341.49.651 1.003.928 1.533.161.412.062.881-.252 1.194-.33.403-.834.777-1.295 1.266a3.108 3.108 0 0 0-.87 1.87c-.108 1.346.381 2.454.561 3.483.18 1.03.13 2.123-.619 2.799Z" fill="#fff" fill-rule="evenodd" data-name="Path 197"/><path d="M278.312 416.476a5.425 5.425 0 0 0 1.526-4.087 5.82 5.82 0 0 0-.72-2.446 3.727 3.727 0 0 1-.64-2.158c.236-.78.517-1.547.842-2.295.203-.878.07-1.8-.374-2.583a18.135 18.135 0 0 1-1-2.03 2.532 2.532 0 0 1 0-1.956 2.518 2.518 0 0 0-.295 2.05c.2.741.465 1.463.791 2.159.33.67.407 1.436.216 2.158-.375.77-.68 1.572-.914 2.396a4.209 4.209 0 0 0 .763 2.583c.404.658.669 1.393.777 2.158a5.885 5.885 0 0 1-.971 4.051Z" fill="#fff" fill-rule="evenodd" data-name="Path 198"/><path d="M253.23 393.56a3.072 3.072 0 0 1-.92-2.05c-.06-.834.088-1.67.432-2.432.64-1.612 1.95-3.18 2.302-5.267.09-.524.09-1.059 0-1.583a8.628 8.628 0 0 0-.446-1.439 3.597 3.597 0 0 1-.331-2.482c.23-.806.72-1.561.993-2.41.309-.781.177-1.667-.345-2.324.373.683.373 1.51 0 2.194-.317.72-.9 1.44-1.252 2.331a3.08 3.08 0 0 0-.188 1.518c.071.492.194.974.367 1.44.156.426.278.864.367 1.309.069.429.069.866 0 1.295-.273 1.777-1.475 3.374-2.05 5.18a5.122 5.122 0 0 0-.202 2.72 3.05 3.05 0 0 0 1.274 2Z" fill="#fff" fill-rule="evenodd" data-name="Path 199"/><path d="M301.84 451.674c.07-.443-.04-.896-.302-1.26a3.663 3.663 0 0 0-1.036-.985c-.799-.518-1.749-.935-2.087-1.734-.338-.799-.165-1.799 0-2.878.1-.565.135-1.14.108-1.712a3.065 3.065 0 0 0-.72-1.77c-.906-.979-2.064-1.202-2.784-1.785a2.684 2.684 0 0 1-.892-2.453 8.204 8.204 0 0 0-.158-3.015c-.338-.957-1.303-1.662-2.159-1.439.871.038 1.594.686 1.727 1.547a9.089 9.089 0 0 1-.115 2.871 4.756 4.756 0 0 0 .072 1.676c.142.614.487 1.16.978 1.555.95.755 2.05 1.036 2.62 1.712.568.676.532 1.662.41 2.705a14.912 14.912 0 0 0-.116 1.633 3.404 3.404 0 0 0 .389 1.684c.286.49.709.884 1.216 1.137.453.259.906.432 1.316.626.763.396 1.533 1.014 1.533 1.885Z" fill="#fff" fill-rule="evenodd" data-name="Path 200"/><path d="M322.864 438.5a2.05 2.05 0 0 0 .439-1.44 4.225 4.225 0 0 0-.425-1.59c-.496-1.028-1.288-1.899-1.59-2.913-.302-1.015.18-1.935.72-3.08a3.914 3.914 0 0 0 .496-2.072 2.562 2.562 0 0 0-.396-1.13 3.275 3.275 0 0 0-.798-.805c-1.173-.799-2.403-1.087-3.022-1.892a5.756 5.756 0 0 1-.928-3.137 7.915 7.915 0 0 0-.799-3.41 3.474 3.474 0 0 0-1.173-1.18 2.158 2.158 0 0 0-1.482-.289 2.59 2.59 0 0 1 2.209 1.698 8.404 8.404 0 0 1 .388 3.224 6.202 6.202 0 0 0 .936 3.756c.935 1.201 2.338 1.51 3.194 2.158.395.252.658.666.72 1.13a2.964 2.964 0 0 1-.353 1.503c-.28.573-.52 1.165-.72 1.77a3.173 3.173 0 0 0 .109 2.037c.503 1.23 1.439 2.007 1.964 2.877.525.871.993 1.936.51 2.785Z" fill="#fff" fill-rule="evenodd" data-name="Path 201"/><path d="M324.483 433.463a1.554 1.554 0 0 1-1.015-1.1 2.62 2.62 0 0 1 .122-1.648c.202-.561.518-1.108.792-1.727a3.85 3.85 0 0 0 .367-2.08 2.979 2.979 0 0 0-1.151-1.798 9.875 9.875 0 0 0-1.663-1.036c-1.057-.568-2.043-1.295-2.23-2.331.012.563.224 1.103.597 1.525.403.468.877.871 1.403 1.195.536.32 1.046.68 1.526 1.079.463.36.788.867.92 1.439a3.49 3.49 0 0 1-.294 1.763 18.058 18.058 0 0 0-.72 1.806c-.203.613-.18 1.28.065 1.877.198.56.693.96 1.28 1.036Z" fill="#fff" fill-rule="evenodd" data-name="Path 202"/><path d="M305.71 400.482A4.928 4.928 0 0 0 308 396.1a4.475 4.475 0 0 0-.274-1.439 13.16 13.16 0 0 0-.604-1.324c-.424-.827-.763-1.669-.446-2.367s1.151-1.259 1.792-2.08c.355-.43.557-.967.575-1.525a3.252 3.252 0 0 0-.381-1.482c-.418-.87-1.008-1.518-1.274-2.273a2.036 2.036 0 0 1 .159-2.159c-.315.245-.526.6-.59.993-.072.422-.05.854.064 1.266.29.831.636 1.642 1.036 2.425a1.993 1.993 0 0 1-.237 2.23c-.518.662-1.439 1.166-1.95 2.245a2.612 2.612 0 0 0-.093 1.698c.147.489.352.957.611 1.396a6.03 6.03 0 0 1 .95 2.446 5.115 5.115 0 0 1-1.626 4.332Z" fill="#fff" fill-rule="evenodd" data-name="Path 203"/></g></g></g></svg>