<svg xmlns="http://www.w3.org/2000/svg" width="48" height="48" viewBox="16 49 48 48"><g data-name="profile"><path d="M40 49c-13.2 0-24 10.8-24 24s10.8 24 24 24c13.275 0 24-10.8 24-24S53.275 49 40 49Zm0 46.575C27.55 95.575 17.425 85.45 17.425 73S27.55 50.425 40 50.425 62.575 60.55 62.575 73 52.45 95.575 40 95.575Z" fill="#2b2e63" fill-rule="evenodd" data-name="Path 462"/><path d="M40 50.425C27.55 50.425 17.425 60.55 17.425 73S27.55 95.575 40 95.575 62.575 85.45 62.575 73 52.45 50.425 40 50.425Zm0 8.1c3.6 0 6.6 2.925 6.6 6.6 0 3.6-2.925 6.6-6.6 6.6-3.6 0-6.6-2.925-6.6-6.6.075-3.6 3-6.6 6.6-6.6ZM51.925 86.8h-23.85c-.375 0-.75-.3-.75-.75 0-6.975 5.7-12.675 12.675-12.675 6.975 0 12.675 5.7 12.675 12.675 0 .45-.3.75-.75.75Z" fill="#ededed" fill-rule="evenodd" data-name="Path 463"/><path d="M40 50.425C27.55 50.425 17.425 60.55 17.425 73S27.55 95.575 40 95.575 62.575 85.45 62.575 73 52.45 50.425 40 50.425Zm0 43.65c-11.625 0-21.075-9.45-21.075-21.075S28.375 51.925 40 51.925 61.075 61.375 61.075 73 51.625 94.075 40 94.075Z" fill="#d6d6d6" fill-rule="evenodd" data-name="Path 464"/><path d="M40 73.375c-6.975 0-12.675 5.7-12.675 12.675 0 .375.3.75.75.75H52c.375 0 .75-.3.75-.75-.075-6.975-5.775-12.675-12.75-12.675Zm-11.175 12c.375-5.85 5.25-10.5 11.175-10.5 5.925 0 10.8 4.65 11.175 10.5h-22.35Z" fill="#2b2e63" fill-rule="evenodd" data-name="Path 465"/><path d="M51.175 85.375h-22.35c.375-5.85 5.25-10.5 11.175-10.5 5.925 0 10.8 4.65 11.175 10.5Z" fill="#f26e61" fill-rule="evenodd" data-name="Path 466"/><path d="M40 58.525c-3.6 0-6.6 2.925-6.6 6.6 0 3.6 2.925 6.6 6.6 6.6 3.6 0 6.6-2.925 6.6-6.6 0-3.6-3-6.6-6.6-6.6Zm0 11.7c-2.85 0-5.1-2.25-5.1-5.1 0-2.85 2.325-5.1 5.1-5.1 2.85 0 5.1 2.325 5.1 5.1 0 2.775-2.25 5.1-5.1 5.1Z" fill="#2b2e63" fill-rule="evenodd" data-name="Path 467"/><path d="M45.1 65.125c0 2.85-2.325 5.1-5.1 5.1-2.85 0-5.1-2.25-5.1-5.1 0-2.85 2.325-5.1 5.1-5.1 2.85 0 5.1 2.25 5.1 5.1Z" fill="#ffe5ab" fill-rule="evenodd" data-name="Path 468"/><path d="M40 74.875c-5.925 0-10.8 4.65-11.175 10.5H51.25c-.45-5.85-5.325-10.5-11.25-10.5ZM40 76c4.875 0 9.075 3.525 9.9 8.25H30.1C30.925 79.525 35.125 76 40 76Z" fill="#e15e5a" fill-rule="evenodd" data-name="Path 469"/><path d="M40 60.025c-2.85 0-5.1 2.325-5.1 5.1 0 2.775 2.325 5.1 5.1 5.1 2.85 0 5.1-2.25 5.1-5.1 0-2.85-2.25-5.1-5.1-5.1Zm0 9.075c-2.175 0-3.975-1.8-3.975-3.975s1.8-3.975 3.975-3.975 3.975 1.8 3.975 3.975S42.175 69.1 40 69.1Z" fill="#f0d39a" fill-rule="evenodd" data-name="Path 470"/></g></svg>